<svg width="1280" height="832" viewBox="0 0 1280 832" fill="none" xmlns="http://www.w3.org/2000/svg">
<g clip-path="url(#clip0_4459_701)">
<g filter="url(#filter0_f_4459_701)">
<path d="M311.577 -212.566C339.94 -261.208 368.299 -309.857 396.654 -358.513C397.109 -359.132 397.641 -359.691 398.237 -360.176C401.918 -363.168 407.939 -363.009 411.812 -360.439C413.313 -359.427 414.543 -358.062 415.39 -356.464L424.392 -340.649L489.887 -227.725L499.962 -210.384C500.79 -208.593 501.338 -206.687 501.589 -204.732C502.155 -200.254 500.921 -196.767 499.502 -192.814C498.222 -188.823 496.278 -185.078 493.752 -181.734C488.384 -174.264 457.124 -119.372 411.478 -38.0468L403.949 -51.6392L392.436 -71.4923L363.281 -123.518L313.795 -208.768L311.577 -212.566Z" fill="url(#paint0_linear_4459_701)"/>
<path d="M203.883 -24.1663L223.122 -24.13L230.375 -24.0937L255.18 -24.0884L271.065 -24.0557L286.939 -24.0051L302.836 -24.0133L402.67 -23.7687L337.173 89.6761L312.486 132.436C311.619 133.689 310.858 134.861 310.222 135.901C309.793 136.643 309.742 136.733 309.535 137.091C308.744 138.576 307.6 139.845 306.203 140.786C304.991 141.364 303.632 141.568 302.301 141.371C300.969 141.174 299.725 140.585 298.728 139.68C298.265 139.209 297.877 138.671 297.576 138.084C296.625 136.473 295.325 134.219 293.779 131.418C292.056 127.966 290.185 124.44 288.14 120.861C287.408 119.556 286.66 118.277 285.916 117.012L272.198 93.404L269.961 89.5357L246.468 49.0824L245.628 47.6311L230.517 21.6199L229.677 20.1686L214.553 -5.88508L203.883 -24.1663Z" fill="url(#paint1_linear_4459_701)"/>
<path d="M218.073 -51.6049L302.476 -197.797L302.94 -197.792L318.874 -170.34L329.241 -152.425L345.446 -124.529L387.747 -51.7432L388.021 -51.2628L395.814 -37.8997L379.822 -37.9344L379.353 -37.931L374.671 -37.9379L372.563 -37.9618L348.082 -38.0304L347.599 -38.0233L295.152 -38.1445L294.637 -38.1439L263.393 -38.2278L262.849 -38.2198L210.474 -38.3598L218.073 -51.6049Z" fill="url(#paint2_linear_4459_701)"/>
<path d="M6.02142 -99.6705L64.6581 -201.233C65.7299 -203.407 67.2085 -205.355 69.0148 -206.973C75.3876 -212.635 83.5871 -211.784 85.4786 -211.784L100.903 -211.742L185.62 -211.469L187.58 -211.459L263.756 -211.214L265.41 -211.213L265.558 -211.2L270.17 -211.197L280.048 -210.994C280.534 -210.923 281.009 -210.79 281.46 -210.596C282.01 -210.435 282.523 -210.168 282.97 -209.809C283.417 -209.451 283.79 -209.008 284.066 -208.507C284.24 -208.009 284.306 -207.481 284.26 -206.956C284.213 -206.432 284.055 -205.923 283.796 -205.466L179.581 -24.9598L187.075 -12.1156L256.175 106.875L261.028 115.284L272.118 134.332L275.746 140.006C282.386 150.508 283.998 153.3 282.975 155.943C282.338 157.518 281.163 158.817 279.659 159.611C278.692 160.115 277.587 160.503 276.587 160.503L234.587 160.404L168.588 160.548L102.752 160.548L87.3752 160.57C84.4929 160.526 81.6392 159.973 78.9462 158.937C69.8031 155.447 65.6645 147.379 64.5619 145.013L30.9872 87.2739L-4.54393 26.1148L-8.45172 19.3491L-20.533 -1.34537C-22.466 -4.84739 -24.1803 -7.87719 -25.5641 -10.4417C-30.8609 -20.2402 -32.9955 -24.9085 -32.4345 -29.2014C-32.1895 -30.8386 -31.7863 -32.4476 -31.2305 -34.006C-30.8371 -35.2458 -29.7773 -37.0915 -28.9496 -38.5586C-25.1963 -45.2119 -21.446 -51.8668 -17.6987 -58.5235L6.02142 -99.6705Z" fill="url(#paint3_linear_4459_701)"/>
</g>
<g filter="url(#filter1_f_4459_701)">
<path d="M-291.408 354.826C-319.771 403.468 -348.13 452.117 -376.485 500.773C-376.94 501.392 -377.472 501.951 -378.068 502.435C-381.749 505.428 -387.77 505.269 -391.643 502.699C-393.144 501.687 -394.373 500.322 -395.221 498.724L-404.223 482.909L-469.718 369.984L-479.792 352.644C-480.62 350.852 -481.169 348.946 -481.419 346.992C-481.986 342.513 -480.751 339.027 -479.332 335.074C-478.052 331.083 -476.109 327.338 -473.583 323.994C-468.215 316.523 -436.955 261.632 -391.308 180.307L-383.779 193.899L-372.267 213.752L-343.112 265.778L-293.626 351.028L-291.408 354.826Z" fill="url(#paint4_linear_4459_701)"/>
<path d="M-183.714 166.426L-202.952 166.39L-210.206 166.354L-235.011 166.348L-250.895 166.316L-266.77 166.265L-282.666 166.273L-382.501 166.029L-317.003 52.5839L-292.316 9.82405C-291.449 8.57105 -290.689 7.39947 -290.052 6.35924C-289.623 5.6166 -289.572 5.52715 -289.365 5.16925C-288.574 3.68391 -287.43 2.41537 -286.033 1.47395C-284.821 0.895643 -283.463 0.692003 -282.131 0.889113C-280.799 1.08622 -279.555 1.67512 -278.558 2.58039C-278.096 3.0511 -277.707 3.58917 -277.406 4.17607C-276.455 5.78714 -275.155 8.04065 -273.609 10.8423C-271.887 14.2942 -270.015 17.8202 -267.971 21.3986C-267.238 22.7042 -266.49 23.983 -265.746 25.2477L-252.028 48.856L-249.791 52.7243L-226.299 93.1777L-225.459 94.629L-210.347 120.64L-209.507 122.092L-194.384 148.145L-183.714 166.426Z" fill="url(#paint5_linear_4459_701)"/>
<path d="M-197.903 193.865L-282.307 340.057L-282.771 340.052L-298.705 312.6L-309.071 294.685L-325.276 266.789L-367.577 194.003L-367.851 193.523L-375.644 180.16L-359.653 180.194L-359.183 180.191L-354.501 180.198L-352.394 180.222L-327.913 180.29L-327.429 180.283L-274.983 180.405L-274.467 180.404L-243.224 180.488L-242.68 180.48L-190.304 180.62L-197.903 193.865Z" fill="url(#paint6_linear_4459_701)"/>
<path d="M14.1481 241.931L-44.4888 343.493C-45.5605 345.667 -47.0392 347.616 -48.8455 349.233C-55.2183 354.895 -63.4178 354.044 -65.3093 354.044L-80.7337 354.003L-165.451 353.729L-167.411 353.719L-243.587 353.474L-245.241 353.473L-245.388 353.46L-250.001 353.457L-259.879 353.254C-260.365 353.183 -260.84 353.05 -261.291 352.856C-261.841 352.695 -262.354 352.428 -262.801 352.069C-263.248 351.711 -263.62 351.268 -263.896 350.767C-264.071 350.269 -264.137 349.741 -264.09 349.216C-264.044 348.692 -263.886 348.183 -263.626 347.726L-159.412 167.22L-166.905 154.376L-236.005 35.3852L-240.858 26.9764L-251.948 7.92785L-255.576 2.25446C-262.216 -8.24805 -263.828 -11.0398 -262.805 -13.6825C-262.168 -15.2578 -260.994 -16.5566 -259.489 -17.351C-258.522 -17.8548 -257.417 -18.2433 -256.417 -18.2433L-214.417 -18.1443L-148.418 -18.288L-82.5822 -18.288L-67.2053 -18.3099C-64.323 -18.2655 -61.4693 -17.7125 -58.7763 -16.6764C-49.6332 -13.1871 -45.4946 -5.11899 -44.392 -2.75257L-10.8174 54.9865L24.7136 116.146L28.6214 122.911L40.7026 143.606C42.6356 147.108 44.35 150.138 45.7337 152.702C51.0305 162.501 53.1651 167.169 52.6041 171.462C52.3591 173.099 51.9559 174.708 51.4001 176.267C51.0067 177.506 49.9469 179.352 49.1192 180.819C45.3659 187.472 41.6156 194.127 37.8682 200.784L14.1481 241.931Z" fill="url(#paint7_linear_4459_701)"/>
</g>
<g filter="url(#filter2_d_4459_701)">
<path d="M311.577 -212.566C339.94 -261.209 368.299 -309.857 396.654 -358.513C397.109 -359.132 397.641 -359.691 398.237 -360.176C401.918 -363.168 407.939 -363.009 411.812 -360.439C413.313 -359.427 414.542 -358.062 415.39 -356.464L424.392 -340.649L489.887 -227.725L499.962 -210.384C500.79 -208.593 501.338 -206.687 501.589 -204.732C502.155 -200.254 500.921 -196.767 499.502 -192.814C498.222 -188.823 496.278 -185.078 493.752 -181.735C488.384 -174.264 457.124 -119.372 411.477 -38.0469L403.949 -51.6393L392.436 -71.4924L363.281 -123.518L313.795 -208.768L311.577 -212.566Z" fill="white"/>
<path d="M203.883 -24.1663L223.121 -24.1301L230.375 -24.0938L255.18 -24.0884L271.065 -24.0557L286.939 -24.0051L302.836 -24.0134L402.67 -23.7687L337.173 89.676L312.486 132.436C311.619 133.689 310.858 134.86 310.222 135.901C309.793 136.643 309.741 136.733 309.535 137.091C308.743 138.576 307.6 139.845 306.203 140.786C304.991 141.364 303.632 141.568 302.301 141.371C300.969 141.174 299.725 140.585 298.728 139.68C298.265 139.209 297.877 138.671 297.576 138.084C296.625 136.473 295.325 134.219 293.779 131.418C292.056 127.966 290.185 124.44 288.14 120.861C287.408 119.556 286.66 118.277 285.916 117.012L272.197 93.404L269.961 89.5357L246.468 49.0823L245.628 47.6311L230.517 21.6198L229.677 20.1685L214.553 -5.88514L203.883 -24.1663Z" fill="white"/>
<path d="M218.072 -51.6049L302.476 -197.797L302.94 -197.792L318.874 -170.34L329.24 -152.425L345.446 -124.53L387.747 -51.7432L388.021 -51.2629L395.813 -37.8998L379.822 -37.9345L379.353 -37.9311L374.671 -37.938L372.563 -37.9618L348.082 -38.0305L347.599 -38.0233L295.152 -38.1446L294.637 -38.144L263.393 -38.2279L262.849 -38.2198L210.473 -38.3598L218.072 -51.6049Z" fill="white"/>
<path d="M6.0213 -99.6705L64.658 -201.233C65.7297 -203.407 67.2084 -205.355 69.0147 -206.973C75.3875 -212.635 83.587 -211.784 85.4785 -211.784L100.903 -211.742L185.62 -211.469L187.58 -211.459L263.756 -211.214L265.41 -211.213L265.558 -211.2L270.17 -211.197L280.048 -210.994C280.534 -210.923 281.009 -210.79 281.46 -210.596C282.01 -210.435 282.523 -210.168 282.97 -209.809C283.417 -209.451 283.789 -209.008 284.065 -208.507C284.24 -208.009 284.306 -207.481 284.26 -206.956C284.213 -206.432 284.055 -205.924 283.796 -205.466L179.581 -24.9599L187.075 -12.1156L256.175 106.875L261.028 115.284L272.118 134.332L275.745 140.006C282.386 150.508 283.998 153.3 282.975 155.943C282.337 157.518 281.163 158.817 279.659 159.611C278.692 160.115 277.587 160.503 276.587 160.503L234.587 160.404L168.587 160.548L102.752 160.548L87.3751 160.57C84.4928 160.526 81.6391 159.973 78.9461 158.937C69.803 155.447 65.6643 147.379 64.5617 145.013L30.9871 87.2738L-4.54406 26.1147L-8.45184 19.3491L-20.5331 -1.34543C-22.4661 -4.84745 -24.1805 -7.87726 -25.5642 -10.4418C-30.861 -20.2403 -32.9956 -24.9085 -32.4346 -29.2015C-32.1896 -30.8386 -31.7864 -32.4476 -31.2307 -34.0061C-30.8372 -35.2459 -29.7774 -37.0915 -28.9497 -38.5587C-25.1964 -45.2119 -21.4461 -51.8669 -17.6988 -58.5235L6.0213 -99.6705Z" fill="white"/>
</g>
<g filter="url(#filter3_d_4459_701)">
<path d="M-291.407 354.823C-319.77 403.466 -348.129 452.115 -376.484 500.77C-376.939 501.389 -377.471 501.948 -378.067 502.433C-381.748 505.425 -387.769 505.266 -391.642 502.696C-393.143 501.684 -394.372 500.319 -395.22 498.721L-404.222 482.906L-469.717 369.982L-479.792 352.641C-480.619 350.85 -481.168 348.944 -481.418 346.989C-481.985 342.511 -480.75 339.024 -479.331 335.071C-478.051 331.08 -476.108 327.335 -473.582 323.992C-468.214 316.521 -436.954 261.629 -391.307 180.304L-383.778 193.896L-372.266 213.75L-343.111 265.775L-293.625 351.026L-291.407 354.823Z" fill="white"/>
<path d="M-183.713 166.424L-202.951 166.388L-210.205 166.351L-235.01 166.346L-250.894 166.313L-266.769 166.262L-282.665 166.271L-382.5 166.026L-317.003 52.5812L-292.315 9.82139C-291.448 8.56839 -290.688 7.39682 -290.051 6.35659C-289.622 5.61395 -289.571 5.52449 -289.364 5.16659C-288.573 3.68126 -287.429 2.41272 -286.032 1.47129C-284.82 0.892988 -283.462 0.689348 -282.13 0.886458C-280.798 1.08357 -279.554 1.67246 -278.557 2.57773C-278.095 3.04845 -277.706 3.58652 -277.405 4.17341C-276.454 5.78449 -275.154 8.03799 -273.608 10.8396C-271.886 14.2915 -270.014 17.8175 -267.97 21.396C-267.237 22.7016 -266.489 23.9804 -265.745 25.245L-252.027 48.8534L-249.79 52.7217L-226.298 93.175L-225.458 94.6263L-210.346 120.638L-209.506 122.089L-194.383 148.143L-183.713 166.424Z" fill="white"/>
<path d="M-197.902 193.862L-282.306 340.055L-282.77 340.049L-298.704 312.597L-309.07 294.682L-325.275 266.787L-367.576 194L-367.85 193.52L-375.643 180.157L-359.652 180.192L-359.182 180.188L-354.5 180.195L-352.393 180.219L-327.912 180.288L-327.428 180.281L-274.982 180.402L-274.466 180.401L-243.223 180.485L-242.679 180.477L-190.303 180.617L-197.902 193.862Z" fill="white"/>
<path d="M14.1491 241.928L-44.4878 343.491C-45.5595 345.665 -47.0382 347.613 -48.8445 349.231C-55.2173 354.893 -63.4168 354.041 -65.3083 354.041L-80.7327 354L-165.45 353.727L-167.41 353.717L-243.586 353.471L-245.24 353.471L-245.388 353.457L-250 353.454L-259.878 353.251C-260.364 353.181 -260.839 353.047 -261.29 352.853C-261.84 352.692 -262.353 352.425 -262.8 352.067C-263.247 351.708 -263.619 351.266 -263.895 350.764C-264.07 350.267 -264.136 349.738 -264.089 349.213C-264.043 348.689 -263.885 348.181 -263.625 347.723L-159.411 167.217L-166.904 154.373L-236.004 35.3826L-240.857 26.9738L-251.947 7.9252L-255.575 2.2518C-262.215 -8.2507 -263.827 -11.0425 -262.804 -13.6852C-262.167 -15.2605 -260.993 -16.5593 -259.488 -17.3537C-258.521 -17.8574 -257.416 -18.246 -256.416 -18.246L-214.417 -18.1469L-148.417 -18.2907L-82.5812 -18.2907L-67.2043 -18.3125C-64.3221 -18.2681 -61.4684 -17.7151 -58.7754 -16.6791C-49.6322 -13.1897 -45.4936 -5.12164 -44.391 -2.75522L-10.8164 54.9839L24.7146 116.143L28.6224 122.909L40.7036 143.603C42.6366 147.105 44.351 150.135 45.7347 152.7C51.0315 162.498 53.1661 167.166 52.6051 171.459C52.3601 173.096 51.9569 174.705 51.4011 176.264C51.0076 177.504 49.9478 179.349 49.1202 180.817C45.3668 187.47 41.6166 194.125 37.8692 200.781L14.1491 241.928Z" fill="white"/>
</g>
</g>
<defs>
<filter id="filter0_f_4459_701" x="-182.521" y="-512.393" width="834.251" height="822.964" filterUnits="userSpaceOnUse" color-interpolation-filters="sRGB">
<feFlood flood-opacity="0" result="BackgroundImageFix"/>
<feBlend mode="normal" in="SourceGraphic" in2="BackgroundImageFix" result="shape"/>
<feGaussianBlur stdDeviation="75" result="effect1_foregroundBlur_4459_701"/>
</filter>
<filter id="filter1_f_4459_701" x="-631.56" y="-168.31" width="834.251" height="822.963" filterUnits="userSpaceOnUse" color-interpolation-filters="sRGB">
<feFlood flood-opacity="0" result="BackgroundImageFix"/>
<feBlend mode="normal" in="SourceGraphic" in2="BackgroundImageFix" result="shape"/>
<feGaussianBlur stdDeviation="75" result="effect1_foregroundBlur_4459_701"/>
</filter>
<filter id="filter2_d_4459_701" x="-36.5216" y="-362.393" width="542.251" height="530.964" filterUnits="userSpaceOnUse" color-interpolation-filters="sRGB">
<feFlood flood-opacity="0" result="BackgroundImageFix"/>
<feColorMatrix in="SourceAlpha" type="matrix" values="0 0 0 0 0 0 0 0 0 0 0 0 0 0 0 0 0 0 127 0" result="hardAlpha"/>
<feOffset dy="4"/>
<feGaussianBlur stdDeviation="2"/>
<feComposite in2="hardAlpha" operator="out"/>
<feColorMatrix type="matrix" values="0 0 0 0 0 0 0 0 0 0 0 0 0 0 0 0 0 0 0.25 0"/>
<feBlend mode="normal" in2="BackgroundImageFix" result="effect1_dropShadow_4459_701"/>
<feBlend mode="normal" in="SourceGraphic" in2="effect1_dropShadow_4459_701" result="shape"/>
</filter>
<filter id="filter3_d_4459_701" x="-485.559" y="-18.3125" width="542.251" height="530.963" filterUnits="userSpaceOnUse" color-interpolation-filters="sRGB">
<feFlood flood-opacity="0" result="BackgroundImageFix"/>
<feColorMatrix in="SourceAlpha" type="matrix" values="0 0 0 0 0 0 0 0 0 0 0 0 0 0 0 0 0 0 127 0" result="hardAlpha"/>
<feOffset dy="4"/>
<feGaussianBlur stdDeviation="2"/>
<feComposite in2="hardAlpha" operator="out"/>
<feColorMatrix type="matrix" values="0 0 0 0 0 0 0 0 0 0 0 0 0 0 0 0 0 0 0.25 0"/>
<feBlend mode="normal" in2="BackgroundImageFix" result="effect1_dropShadow_4459_701"/>
<feBlend mode="normal" in="SourceGraphic" in2="effect1_dropShadow_4459_701" result="shape"/>
</filter>
<linearGradient id="paint0_linear_4459_701" x1="173.56" y1="253.75" x2="179.56" y2="-61.7499" gradientUnits="userSpaceOnUse">
<stop stop-color="#E06287"/>
<stop offset="1" stop-color="#765DF2"/>
</linearGradient>
<linearGradient id="paint1_linear_4459_701" x1="173.56" y1="253.75" x2="179.56" y2="-61.7499" gradientUnits="userSpaceOnUse">
<stop stop-color="#E06287"/>
<stop offset="1" stop-color="#765DF2"/>
</linearGradient>
<linearGradient id="paint2_linear_4459_701" x1="173.56" y1="253.75" x2="179.56" y2="-61.7499" gradientUnits="userSpaceOnUse">
<stop stop-color="#E06287"/>
<stop offset="1" stop-color="#765DF2"/>
</linearGradient>
<linearGradient id="paint3_linear_4459_701" x1="173.56" y1="253.75" x2="179.56" y2="-61.7499" gradientUnits="userSpaceOnUse">
<stop stop-color="#E06287"/>
<stop offset="1" stop-color="#765DF2"/>
</linearGradient>
<linearGradient id="paint4_linear_4459_701" x1="-98.5" y1="201" x2="31.9997" y2="109" gradientUnits="userSpaceOnUse">
<stop stop-color="#E06287"/>
<stop offset="1" stop-color="#AB60BD"/>
</linearGradient>
<linearGradient id="paint5_linear_4459_701" x1="-98.5" y1="201" x2="31.9997" y2="109" gradientUnits="userSpaceOnUse">
<stop stop-color="#E06287"/>
<stop offset="1" stop-color="#AB60BD"/>
</linearGradient>
<linearGradient id="paint6_linear_4459_701" x1="-98.5" y1="201" x2="31.9997" y2="109" gradientUnits="userSpaceOnUse">
<stop stop-color="#E06287"/>
<stop offset="1" stop-color="#AB60BD"/>
</linearGradient>
<linearGradient id="paint7_linear_4459_701" x1="-98.5" y1="201" x2="31.9997" y2="109" gradientUnits="userSpaceOnUse">
<stop stop-color="#E06287"/>
<stop offset="1" stop-color="#AB60BD"/>
</linearGradient>
<clipPath id="clip0_4459_701">
<rect width="1280" height="832" fill="white"/>
</clipPath>
</defs>
</svg>
