<svg width="1280" height="832" viewBox="0 0 1280 832" fill="none" xmlns="http://www.w3.org/2000/svg">
<g filter="url(#filter0_f_3935_146)">
<path d="M1448.5 688.811C1476.87 640.169 1505.23 591.52 1533.58 542.865C1534.04 542.245 1534.57 541.687 1535.16 541.202C1538.85 538.209 1544.87 538.369 1548.74 540.939C1550.24 541.95 1551.47 543.316 1552.32 544.913L1561.32 560.728L1626.81 673.653L1636.89 690.994C1637.72 692.785 1638.26 694.691 1638.52 696.645C1639.08 701.124 1637.85 704.611 1636.43 708.563C1635.15 712.554 1633.2 716.3 1630.68 719.643C1625.31 727.114 1594.05 782.005 1548.4 863.331L1540.87 849.738L1529.36 829.885L1500.21 777.859L1450.72 692.609L1448.5 688.811Z" fill="url(#paint0_linear_3935_146)"/>
<path d="M1340.81 877.211L1360.05 877.247L1367.3 877.284L1392.11 877.289L1407.99 877.322L1423.87 877.372L1439.76 877.364L1539.6 877.609L1474.1 991.054L1449.41 1033.81C1448.54 1035.07 1447.78 1036.24 1447.15 1037.28C1446.72 1038.02 1446.67 1038.11 1446.46 1038.47C1445.67 1039.95 1444.53 1041.22 1443.13 1042.16C1441.92 1042.74 1440.56 1042.95 1439.23 1042.75C1437.9 1042.55 1436.65 1041.96 1435.65 1041.06C1435.19 1040.59 1434.8 1040.05 1434.5 1039.46C1433.55 1037.85 1432.25 1035.6 1430.7 1032.8C1428.98 1029.34 1427.11 1025.82 1425.07 1022.24C1424.33 1020.93 1423.59 1019.65 1422.84 1018.39L1409.12 994.781L1406.89 990.913L1383.39 950.46L1382.55 949.008L1367.44 922.997L1366.6 921.546L1351.48 895.492L1340.81 877.211Z" fill="url(#paint1_linear_3935_146)"/>
<path d="M1355 849.772L1439.4 703.58L1439.87 703.586L1455.8 731.038L1466.17 748.953L1482.37 776.848L1524.67 849.634L1524.95 850.115L1532.74 863.478L1516.75 863.443L1516.28 863.447L1511.6 863.44L1509.49 863.416L1485.01 863.347L1484.53 863.354L1432.08 863.233L1431.56 863.233L1400.32 863.149L1399.78 863.158L1347.4 863.017L1355 849.772Z" fill="url(#paint2_linear_3935_146)"/>
<path d="M1142.95 801.706L1201.58 700.144C1202.66 697.97 1204.13 696.022 1205.94 694.404C1212.31 688.742 1220.51 689.593 1222.41 689.593L1237.83 689.635L1322.55 689.908L1324.51 689.918L1400.68 690.164L1402.34 690.164L1402.48 690.178L1407.1 690.181L1416.97 690.384C1417.46 690.454 1417.94 690.588 1418.39 690.782C1418.94 690.942 1419.45 691.21 1419.9 691.568C1420.34 691.926 1420.72 692.369 1420.99 692.87C1421.17 693.368 1421.23 693.897 1421.19 694.421C1421.14 694.946 1420.98 695.454 1420.72 695.912L1316.51 876.417L1324 889.262L1393.1 1008.25L1397.95 1016.66L1409.04 1035.71L1412.67 1041.38C1419.31 1051.89 1420.92 1054.68 1419.9 1057.32C1419.26 1058.9 1418.09 1060.19 1416.58 1060.99C1415.62 1061.49 1414.51 1061.88 1413.51 1061.88L1371.51 1061.78L1305.51 1061.93L1239.68 1061.93L1224.3 1061.95C1221.42 1061.9 1218.57 1061.35 1215.87 1060.31C1206.73 1056.82 1202.59 1048.76 1201.49 1046.39L1167.91 988.651L1132.38 927.492L1128.47 920.726L1116.39 900.032C1114.46 896.53 1112.75 893.5 1111.36 890.935C1106.07 881.137 1103.93 876.468 1104.49 872.175C1104.74 870.538 1105.14 868.929 1105.7 867.371C1106.16 865.977 1107.12 864.334 1107.98 862.818C1111.73 856.165 1115.48 849.51 1119.23 842.853L1142.95 801.706Z" fill="url(#paint3_linear_3935_146)"/>
</g>
<g filter="url(#filter1_f_3935_146)">
<path d="M843.012 865.256C814.649 913.898 786.29 962.547 757.935 1011.2C757.48 1011.82 756.948 1012.38 756.352 1012.87C752.671 1015.86 746.651 1015.7 742.777 1013.13C741.276 1012.12 740.047 1010.75 739.199 1009.15L730.197 993.339L664.702 880.414L654.628 863.074C653.8 861.282 653.251 859.376 653.001 857.422C652.434 852.943 653.669 849.457 655.088 845.504C656.368 841.513 658.311 837.768 660.837 834.424C666.205 826.953 697.465 772.062 743.112 690.737L750.641 704.329L762.153 724.182L791.308 776.208L840.794 861.458L843.012 865.256Z" fill="url(#paint4_linear_3935_146)"/>
<path d="M950.706 676.856L931.468 676.82L924.214 676.784L899.409 676.778L883.525 676.746L867.65 676.695L851.754 676.703L751.919 676.459L817.417 563.014L842.104 520.254C842.971 519.001 843.731 517.829 844.368 516.789C844.797 516.047 844.848 515.957 845.055 515.599C845.846 514.114 846.99 512.845 848.387 511.904C849.599 511.326 850.958 511.122 852.289 511.319C853.621 511.516 854.865 512.105 855.862 513.01C856.325 513.481 856.713 514.019 857.014 514.606C857.965 516.217 859.265 518.471 860.811 521.272C862.534 524.724 864.405 528.25 866.45 531.829C867.182 533.134 867.93 534.413 868.674 535.678L882.392 559.286L884.629 563.154L908.121 603.608L908.961 605.059L924.073 631.07L924.913 632.522L940.036 658.575L950.706 676.856Z" fill="url(#paint5_linear_3935_146)"/>
<path d="M936.517 704.295L852.113 850.487L851.649 850.482L835.715 823.03L825.349 805.115L809.144 777.219L766.843 704.433L766.569 703.953L758.776 690.59L774.767 690.624L775.237 690.621L779.919 690.628L782.026 690.652L806.507 690.72L806.991 690.713L859.437 690.835L859.953 690.834L891.196 690.918L891.74 690.91L944.116 691.05L936.517 704.295Z" fill="url(#paint6_linear_3935_146)"/>
<path d="M1148.57 752.361L1089.93 853.923C1088.86 856.097 1087.38 858.046 1085.57 859.663C1079.2 865.325 1071 864.474 1069.11 864.474L1053.69 864.433L968.969 864.159L967.009 864.149L890.833 863.904L889.179 863.903L889.032 863.89L884.419 863.887L874.541 863.684C874.055 863.613 873.58 863.48 873.129 863.286C872.579 863.125 872.066 862.858 871.619 862.499C871.172 862.141 870.8 861.698 870.524 861.197C870.349 860.699 870.283 860.171 870.33 859.646C870.376 859.122 870.534 858.613 870.794 858.156L975.008 677.65L967.515 664.806L898.415 545.815L893.562 537.406L882.472 518.358L878.844 512.684C872.204 502.182 870.592 499.39 871.615 496.747C872.252 495.172 873.426 493.873 874.931 493.079C875.898 492.575 877.003 492.187 878.003 492.187L920.003 492.286L986.002 492.142L1051.84 492.142L1067.21 492.12C1070.1 492.165 1072.95 492.718 1075.64 493.754C1084.79 497.243 1088.93 505.311 1090.03 507.677L1123.6 565.417L1159.13 626.576L1163.04 633.341L1175.12 654.036C1177.06 657.538 1178.77 660.568 1180.15 663.132C1185.45 672.931 1187.59 677.599 1187.02 681.892C1186.78 683.529 1186.38 685.138 1185.82 686.697C1185.43 687.936 1184.37 689.782 1183.54 691.249C1179.79 697.902 1176.04 704.557 1172.29 711.214L1148.57 752.361Z" fill="url(#paint7_linear_3935_146)"/>
</g>
<g filter="url(#filter2_f_3935_146)">
<path d="M1445.13 296.144C1473.49 247.502 1501.85 198.853 1530.2 150.197C1530.66 149.578 1531.19 149.019 1531.79 148.535C1535.47 145.542 1541.49 145.701 1545.36 148.272C1546.86 149.283 1548.09 150.648 1548.94 152.246L1557.94 168.061L1623.44 280.986L1633.51 298.327C1634.34 300.118 1634.89 302.024 1635.14 303.978C1635.71 308.457 1634.47 311.943 1633.05 315.896C1631.77 319.887 1629.83 323.632 1627.3 326.976C1621.93 334.447 1590.67 389.338 1545.03 470.663L1537.5 457.071L1525.99 437.218L1496.83 385.192L1447.35 299.942L1445.13 296.144Z" fill="url(#paint8_linear_3935_146)"/>
<path d="M1337.43 484.544L1356.67 484.58L1363.93 484.616L1388.73 484.622L1404.62 484.654L1420.49 484.705L1436.39 484.697L1536.22 484.942L1470.72 598.386L1446.04 641.146C1445.17 642.399 1444.41 643.571 1443.77 644.611C1443.34 645.353 1443.29 645.443 1443.09 645.801C1442.29 647.286 1441.15 648.555 1439.75 649.496C1438.54 650.074 1437.18 650.278 1435.85 650.081C1434.52 649.884 1433.28 649.295 1432.28 648.39C1431.82 647.919 1431.43 647.381 1431.13 646.794C1430.17 645.183 1428.88 642.929 1427.33 640.128C1425.61 636.676 1423.74 633.15 1421.69 629.571C1420.96 628.266 1420.21 626.987 1419.47 625.722L1405.75 602.114L1403.51 598.246L1380.02 557.792L1379.18 556.341L1364.07 530.33L1363.23 528.879L1348.1 502.825L1337.43 484.544Z" fill="url(#paint9_linear_3935_146)"/>
<path d="M1351.62 457.105L1436.03 310.913L1436.49 310.918L1452.42 338.371L1462.79 356.285L1479 384.181L1521.3 456.967L1521.57 457.447L1529.36 470.81L1513.37 470.776L1512.9 470.779L1508.22 470.772L1506.11 470.748L1481.63 470.68L1481.15 470.687L1428.7 470.566L1428.19 470.566L1396.94 470.482L1396.4 470.49L1344.02 470.35L1351.62 457.105Z" fill="url(#paint10_linear_3935_146)"/>
<path d="M1139.57 409.039L1198.21 307.477C1199.28 305.303 1200.76 303.354 1202.57 301.737C1208.94 296.075 1217.14 296.926 1219.03 296.926L1234.45 296.967L1319.17 297.241L1321.13 297.251L1397.31 297.496L1398.96 297.497L1399.11 297.51L1403.72 297.513L1413.6 297.716C1414.08 297.787 1414.56 297.92 1415.01 298.114C1415.56 298.275 1416.07 298.542 1416.52 298.901C1416.97 299.259 1417.34 299.702 1417.62 300.203C1417.79 300.701 1417.86 301.23 1417.81 301.754C1417.76 302.278 1417.61 302.787 1417.35 303.244L1313.13 483.75L1320.63 496.594L1389.73 615.585L1394.58 623.994L1405.67 643.042L1409.3 648.716C1415.94 659.218 1417.55 662.01 1416.53 664.653C1415.89 666.228 1414.71 667.527 1413.21 668.321C1412.24 668.825 1411.14 669.213 1410.14 669.213L1368.14 669.114L1302.14 669.258L1236.3 669.258L1220.93 669.28C1218.04 669.236 1215.19 668.683 1212.5 667.646C1203.35 664.157 1199.21 656.089 1198.11 653.723L1164.54 595.984L1129.01 534.824L1125.1 528.059L1113.02 507.364C1111.08 503.862 1109.37 500.832 1107.99 498.268C1102.69 488.469 1100.55 483.801 1101.12 479.508C1101.36 477.871 1101.76 476.262 1102.32 474.704C1102.9 473.104 1103.77 471.629 1104.6 470.151C1108.35 463.498 1112.1 456.843 1115.85 450.186L1139.57 409.039Z" fill="url(#paint11_linear_3935_146)"/>
</g>
<g filter="url(#filter3_f_3935_146)">
<path d="M311.577 -212.566C339.94 -261.209 368.299 -309.857 396.654 -358.513C397.109 -359.132 397.641 -359.691 398.237 -360.176C401.918 -363.168 407.939 -363.009 411.812 -360.439C413.313 -359.427 414.543 -358.062 415.39 -356.464L424.392 -340.649L489.887 -227.725L499.962 -210.384C500.79 -208.593 501.338 -206.687 501.589 -204.732C502.155 -200.254 500.921 -196.767 499.502 -192.814C498.222 -188.823 496.278 -185.078 493.752 -181.735C488.384 -174.264 457.124 -119.372 411.478 -38.0469L403.949 -51.6393L392.436 -71.4924L363.281 -123.518L313.795 -208.768L311.577 -212.566Z" fill="url(#paint12_linear_3935_146)"/>
<path d="M203.883 -24.1663L223.122 -24.1301L230.375 -24.0937L255.18 -24.0884L271.065 -24.0557L286.939 -24.0051L302.836 -24.0133L402.67 -23.7687L337.173 89.676L312.486 132.436C311.619 133.689 310.858 134.86 310.222 135.901C309.793 136.643 309.742 136.733 309.535 137.091C308.744 138.576 307.6 139.845 306.203 140.786C304.991 141.364 303.632 141.568 302.301 141.371C300.969 141.174 299.725 140.585 298.728 139.68C298.265 139.209 297.877 138.671 297.576 138.084C296.625 136.473 295.325 134.219 293.779 131.418C292.056 127.966 290.185 124.44 288.14 120.861C287.408 119.556 286.66 118.277 285.916 117.012L272.198 93.404L269.961 89.5357L246.468 49.0824L245.628 47.6311L230.517 21.6199L229.677 20.1686L214.553 -5.88511L203.883 -24.1663Z" fill="url(#paint13_linear_3935_146)"/>
<path d="M218.073 -51.6049L302.476 -197.797L302.94 -197.792L318.874 -170.34L329.241 -152.425L345.446 -124.529L387.747 -51.7432L388.021 -51.2629L395.814 -37.8998L379.822 -37.9344L379.353 -37.931L374.671 -37.938L372.563 -37.9618L348.082 -38.0305L347.599 -38.0233L295.152 -38.1445L294.637 -38.144L263.393 -38.2279L262.849 -38.2198L210.474 -38.3598L218.073 -51.6049Z" fill="url(#paint14_linear_3935_146)"/>
<path d="M6.02143 -99.6705L64.6582 -201.233C65.7299 -203.407 67.2085 -205.355 69.0148 -206.973C75.3876 -212.635 83.5871 -211.784 85.4786 -211.784L100.903 -211.742L185.62 -211.469L187.58 -211.459L263.756 -211.214L265.41 -211.213L265.558 -211.2L270.17 -211.197L280.048 -210.994C280.534 -210.923 281.009 -210.79 281.46 -210.596C282.01 -210.435 282.523 -210.168 282.97 -209.809C283.417 -209.451 283.79 -209.008 284.066 -208.507C284.24 -208.009 284.306 -207.481 284.26 -206.956C284.213 -206.432 284.055 -205.923 283.796 -205.466L179.581 -24.9598L187.075 -12.1156L256.175 106.875L261.028 115.284L272.118 134.332L275.746 140.006C282.386 150.508 283.998 153.3 282.975 155.943C282.338 157.518 281.163 158.817 279.659 159.611C278.692 160.115 277.587 160.503 276.587 160.503L234.587 160.404L168.588 160.548L102.752 160.548L87.3752 160.57C84.4929 160.526 81.6392 159.973 78.9463 158.937C69.8031 155.447 65.6645 147.379 64.5619 145.013L30.9872 87.2739L-4.54393 26.1148L-8.45171 19.3491L-20.5329 -1.34539C-22.466 -4.84742 -24.1803 -7.87723 -25.564 -10.4417C-30.8609 -20.2402 -32.9955 -24.9085 -32.4345 -29.2015C-32.1895 -30.8386 -31.7863 -32.4476 -31.2305 -34.0061C-30.8371 -35.2459 -29.7773 -37.0915 -28.9496 -38.5587C-25.1963 -45.2119 -21.446 -51.8668 -17.6987 -58.5235L6.02143 -99.6705Z" fill="url(#paint15_linear_3935_146)"/>
</g>
<g filter="url(#filter4_f_3935_146)">
<path d="M1445.5 -95.8159C1473.86 -144.458 1502.22 -193.107 1530.57 -241.763C1531.03 -242.382 1531.56 -242.941 1532.16 -243.425C1535.84 -246.418 1541.86 -246.259 1545.73 -243.688C1547.23 -242.677 1548.46 -241.312 1549.31 -239.714L1558.31 -223.899L1623.81 -110.974L1633.88 -93.6335C1634.71 -91.8424 1635.26 -89.9365 1635.51 -87.982C1636.08 -83.5034 1634.84 -80.0166 1633.42 -76.0639C1632.14 -72.0731 1630.2 -68.3278 1627.67 -64.9842C1622.3 -57.5134 1591.04 -2.62192 1545.4 78.7034L1537.87 65.111L1526.36 45.2578L1497.2 -6.76811L1447.72 -92.0182L1445.5 -95.8159Z" fill="url(#paint16_linear_3935_146)"/>
<path d="M1337.8 92.5836L1357.04 92.6199L1364.3 92.6562L1389.1 92.6616L1404.99 92.6943L1420.86 92.745L1436.76 92.7368L1536.59 92.9815L1471.09 206.426L1446.41 249.186C1445.54 250.439 1444.78 251.611 1444.14 252.651C1443.71 253.393 1443.66 253.483 1443.46 253.841C1442.66 255.326 1441.52 256.595 1440.12 257.536C1438.91 258.114 1437.55 258.318 1436.22 258.121C1434.89 257.924 1433.65 257.335 1432.65 256.43C1432.19 255.959 1431.8 255.421 1431.5 254.834C1430.54 253.223 1429.25 250.969 1427.7 248.168C1425.98 244.716 1424.11 241.19 1422.06 237.611C1421.33 236.306 1420.58 235.027 1419.84 233.762L1406.12 210.154L1403.88 206.286L1380.39 165.832L1379.55 164.381L1364.44 138.37L1363.6 136.919L1348.47 110.865L1337.8 92.5836Z" fill="url(#paint17_linear_3935_146)"/>
<path d="M1351.99 65.1451L1436.4 -81.0472L1436.86 -81.0416L1452.79 -53.5895L1463.16 -35.6746L1479.37 -7.77933L1521.67 65.007L1521.94 65.4873L1529.73 78.8505L1513.74 78.8158L1513.27 78.8192L1508.59 78.8122L1506.48 78.7884L1482 78.7197L1481.52 78.7268L1429.07 78.6055L1428.56 78.6061L1397.31 78.5221L1396.77 78.5302L1344.39 78.3901L1351.99 65.1451Z" fill="url(#paint18_linear_3935_146)"/>
<path d="M1139.94 17.0791L1198.58 -84.4833C1199.65 -86.6573 1201.13 -88.6056 1202.94 -90.2234C1209.31 -95.8852 1217.51 -95.0339 1219.4 -95.0339L1234.82 -94.9926L1319.54 -94.7192L1321.5 -94.7091L1397.68 -94.4637L1399.33 -94.4633L1399.48 -94.4495L1404.09 -94.4468L1413.97 -94.2435C1414.45 -94.1734 1414.93 -94.0397 1415.38 -93.8457C1415.93 -93.685 1416.44 -93.4178 1416.89 -93.0594C1417.34 -92.701 1417.71 -92.2584 1417.99 -91.7571C1418.16 -91.2593 1418.23 -90.7305 1418.18 -90.206C1418.13 -89.6816 1417.98 -89.1734 1417.72 -88.7157L1313.5 91.79L1321 104.634L1390.1 223.625L1394.95 232.034L1406.04 251.082L1409.67 256.756C1416.31 267.258 1417.92 270.05 1416.9 272.693C1416.26 274.268 1415.08 275.567 1413.58 276.361C1412.61 276.865 1411.51 277.253 1410.51 277.253L1368.51 277.154L1302.51 277.298L1236.67 277.298L1221.3 277.32C1218.41 277.276 1215.56 276.723 1212.87 275.686C1203.72 272.197 1199.58 264.129 1198.48 261.763L1164.91 204.024L1129.38 142.864L1125.47 136.099L1113.39 115.404C1111.45 111.902 1109.74 108.872 1108.36 106.308C1103.06 96.5093 1100.92 91.8411 1101.49 87.5481C1101.73 85.911 1102.13 84.302 1102.69 82.7435C1103.27 81.1437 1104.14 79.6691 1104.97 78.1909C1108.72 71.5377 1112.47 64.8828 1116.22 58.2261L1139.94 17.0791Z" fill="url(#paint19_linear_3935_146)"/>
</g>
<g filter="url(#filter5_f_3935_146)">
<path d="M-291.408 354.826C-319.771 403.468 -348.13 452.117 -376.485 500.773C-376.94 501.392 -377.472 501.951 -378.068 502.435C-381.749 505.428 -387.77 505.269 -391.643 502.699C-393.144 501.687 -394.373 500.322 -395.221 498.724L-404.223 482.909L-469.718 369.984L-479.792 352.644C-480.62 350.852 -481.169 348.946 -481.419 346.992C-481.986 342.513 -480.751 339.027 -479.332 335.074C-478.052 331.083 -476.109 327.338 -473.583 323.994C-468.215 316.523 -436.955 261.632 -391.308 180.307L-383.779 193.899L-372.267 213.752L-343.112 265.778L-293.626 351.028L-291.408 354.826Z" fill="url(#paint20_linear_3935_146)"/>
<path d="M-183.714 166.426L-202.952 166.39L-210.206 166.354L-235.011 166.348L-250.895 166.316L-266.77 166.265L-282.666 166.273L-382.501 166.028L-317.003 52.5839L-292.316 9.82402C-291.449 8.57102 -290.689 7.39944 -290.052 6.35921C-289.623 5.61657 -289.572 5.52712 -289.365 5.16922C-288.574 3.68388 -287.43 2.41534 -286.033 1.47392C-284.821 0.895613 -283.463 0.691972 -282.131 0.889082C-280.799 1.08619 -279.555 1.67509 -278.558 2.58036C-278.096 3.05107 -277.707 3.58914 -277.406 4.17604C-276.455 5.78711 -275.155 8.04062 -273.609 10.8422C-271.887 14.2942 -270.015 17.8202 -267.971 21.3986C-267.238 22.7042 -266.49 23.983 -265.746 25.2476L-252.028 48.856L-249.791 52.7243L-226.299 93.1777L-225.459 94.6289L-210.347 120.64L-209.507 122.091L-194.384 148.145L-183.714 166.426Z" fill="url(#paint21_linear_3935_146)"/>
<path d="M-197.903 193.865L-282.307 340.057L-282.771 340.052L-298.705 312.6L-309.071 294.685L-325.276 266.789L-367.577 194.003L-367.851 193.523L-375.644 180.16L-359.653 180.194L-359.183 180.191L-354.501 180.198L-352.394 180.222L-327.913 180.29L-327.429 180.283L-274.983 180.404L-274.467 180.404L-243.224 180.488L-242.68 180.48L-190.304 180.62L-197.903 193.865Z" fill="url(#paint22_linear_3935_146)"/>
<path d="M14.1481 241.931L-44.4888 343.493C-45.5605 345.667 -47.0392 347.616 -48.8455 349.233C-55.2183 354.895 -63.4178 354.044 -65.3093 354.044L-80.7337 354.003L-165.451 353.729L-167.411 353.719L-243.587 353.474L-245.241 353.473L-245.388 353.46L-250.001 353.457L-259.879 353.254C-260.365 353.183 -260.84 353.05 -261.291 352.856C-261.841 352.695 -262.354 352.428 -262.801 352.069C-263.248 351.711 -263.62 351.268 -263.896 350.767C-264.071 350.269 -264.137 349.741 -264.09 349.216C-264.044 348.692 -263.886 348.183 -263.626 347.726L-159.412 167.22L-166.905 154.376L-236.005 35.3852L-240.858 26.9764L-251.948 7.92782L-255.576 2.25443C-262.216 -8.24808 -263.828 -11.0399 -262.805 -13.6826C-262.168 -15.2579 -260.994 -16.5566 -259.489 -17.351C-258.522 -17.8548 -257.417 -18.2433 -256.417 -18.2433L-214.417 -18.1443L-148.418 -18.2881L-82.5822 -18.2881L-67.2053 -18.3099C-64.323 -18.2655 -61.4693 -17.7125 -58.7763 -16.6764C-49.6332 -13.1871 -45.4946 -5.11902 -44.392 -2.7526L-10.8174 54.9865L24.7136 116.146L28.6214 122.911L40.7026 143.606C42.6356 147.108 44.35 150.138 45.7337 152.702C51.0305 162.501 53.1651 167.169 52.6041 171.462C52.3591 173.099 51.9559 174.708 51.4001 176.267C51.0067 177.506 49.9469 179.352 49.1192 180.819C45.3659 187.472 41.6156 194.127 37.8682 200.784L14.1481 241.931Z" fill="url(#paint23_linear_3935_146)"/>
</g>
<g filter="url(#filter6_d_3935_146)">
<path d="M1445.13 296.142C1473.5 247.5 1501.85 198.851 1530.21 150.195C1530.66 149.576 1531.2 149.017 1531.79 148.533C1535.47 145.54 1541.49 145.699 1545.37 148.27C1546.87 149.281 1548.1 150.646 1548.95 152.244L1557.95 168.059L1623.44 280.984L1633.52 298.325C1634.35 300.116 1634.89 302.022 1635.14 303.976C1635.71 308.455 1634.48 311.941 1633.06 315.894C1631.78 319.885 1629.83 323.63 1627.31 326.974C1621.94 334.445 1590.68 389.336 1545.03 470.661L1537.5 457.069L1525.99 437.216L1496.84 385.19L1447.35 299.94L1445.13 296.142Z" fill="white"/>
<path d="M1337.44 484.542L1356.68 484.578L1363.93 484.614L1388.74 484.62L1404.62 484.652L1420.49 484.703L1436.39 484.695L1536.23 484.94L1470.73 598.384L1446.04 641.144C1445.17 642.397 1444.41 643.569 1443.78 644.609C1443.35 645.351 1443.3 645.441 1443.09 645.799C1442.3 647.284 1441.15 648.553 1439.76 649.494C1438.55 650.072 1437.19 650.276 1435.86 650.079C1434.52 649.882 1433.28 649.293 1432.28 648.388C1431.82 647.917 1431.43 647.379 1431.13 646.792C1430.18 645.181 1428.88 642.927 1427.33 640.126C1425.61 636.674 1423.74 633.148 1421.7 629.569C1420.96 628.264 1420.22 626.985 1419.47 625.72L1405.75 602.112L1403.52 598.244L1380.02 557.79L1379.18 556.339L1364.07 530.328L1363.23 528.877L1348.11 502.823L1337.44 484.542Z" fill="white"/>
<path d="M1351.63 457.103L1436.03 310.911L1436.5 310.916L1452.43 338.369L1462.8 356.283L1479 384.179L1521.3 456.965L1521.58 457.445L1529.37 470.808L1513.38 470.774L1512.91 470.777L1508.23 470.77L1506.12 470.746L1481.64 470.678L1481.15 470.685L1428.71 470.564L1428.19 470.564L1396.95 470.48L1396.4 470.488L1344.03 470.348L1351.63 457.103Z" fill="white"/>
<path d="M1139.58 409.037L1198.21 307.475C1199.29 305.301 1200.76 303.352 1202.57 301.735C1208.94 296.073 1217.14 296.924 1219.03 296.924L1234.46 296.965L1319.18 297.239L1321.14 297.249L1397.31 297.494L1398.97 297.495L1399.11 297.508L1403.73 297.511L1413.6 297.714C1414.09 297.785 1414.56 297.918 1415.02 298.112C1415.57 298.273 1416.08 298.54 1416.53 298.899C1416.97 299.257 1417.34 299.7 1417.62 300.201C1417.8 300.699 1417.86 301.228 1417.82 301.752C1417.77 302.276 1417.61 302.785 1417.35 303.242L1313.14 483.748L1320.63 496.592L1389.73 615.583L1394.58 623.992L1405.67 643.04L1409.3 648.714C1415.94 659.216 1417.55 662.008 1416.53 664.651C1415.89 666.226 1414.72 667.525 1413.21 668.319C1412.25 668.823 1411.14 669.211 1410.14 669.211L1368.14 669.112L1302.14 669.256L1236.31 669.256L1220.93 669.278C1218.05 669.234 1215.19 668.681 1212.5 667.644C1203.36 664.155 1199.22 656.087 1198.12 653.721L1164.54 595.982L1129.01 534.822L1125.1 528.057L1113.02 507.362C1111.09 503.86 1109.37 500.83 1107.99 498.266C1102.69 488.467 1100.56 483.799 1101.12 479.506C1101.37 477.869 1101.77 476.26 1102.32 474.702C1102.91 473.102 1103.77 471.627 1104.61 470.149C1108.36 463.496 1112.11 456.841 1115.86 450.184L1139.58 409.037Z" fill="white"/>
</g>
<g filter="url(#filter7_d_3935_146)">
<path d="M1445.5 -95.8159C1473.86 -144.458 1502.22 -193.107 1530.57 -241.763C1531.03 -242.382 1531.56 -242.941 1532.16 -243.425C1535.84 -246.418 1541.86 -246.259 1545.73 -243.689C1547.23 -242.677 1548.46 -241.312 1549.31 -239.714L1558.31 -223.899L1623.81 -110.974L1633.88 -93.6335C1634.71 -91.8424 1635.26 -89.9365 1635.51 -87.982C1636.08 -83.5034 1634.84 -80.0166 1633.42 -76.064C1632.14 -72.0731 1630.2 -68.3278 1627.67 -64.9842C1622.3 -57.5135 1591.04 -2.62195 1545.4 78.7034L1537.87 65.111L1526.36 45.2578L1497.2 -6.76815L1447.72 -92.0183L1445.5 -95.8159Z" fill="white"/>
<path d="M1337.8 92.5836L1357.04 92.6199L1364.3 92.6562L1389.1 92.6616L1404.99 92.6943L1420.86 92.7449L1436.76 92.7367L1536.59 92.9815L1471.09 206.426L1446.41 249.186C1445.54 250.439 1444.78 251.611 1444.14 252.651C1443.71 253.393 1443.66 253.483 1443.46 253.841C1442.66 255.326 1441.52 256.595 1440.12 257.536C1438.91 258.114 1437.55 258.318 1436.22 258.121C1434.89 257.924 1433.65 257.335 1432.65 256.43C1432.19 255.959 1431.8 255.421 1431.5 254.834C1430.54 253.223 1429.25 250.969 1427.7 248.168C1425.98 244.716 1424.11 241.19 1422.06 237.611C1421.33 236.306 1420.58 235.027 1419.84 233.762L1406.12 210.154L1403.88 206.286L1380.39 165.832L1379.55 164.381L1364.44 138.37L1363.6 136.919L1348.47 110.865L1337.8 92.5836Z" fill="white"/>
<path d="M1351.99 65.145L1436.4 -81.0472L1436.86 -81.0417L1452.79 -53.5895L1463.16 -35.6746L1479.37 -7.77935L1521.67 65.007L1521.94 65.4873L1529.73 78.8504L1513.74 78.8157L1513.27 78.8191L1508.59 78.8122L1506.48 78.7883L1482 78.7197L1481.52 78.7268L1429.07 78.6055L1428.56 78.6061L1397.31 78.5221L1396.77 78.5302L1344.39 78.3901L1351.99 65.145Z" fill="white"/>
<path d="M1139.94 17.0791L1198.58 -84.4833C1199.65 -86.6574 1201.13 -88.6056 1202.94 -90.2235C1209.31 -95.8852 1217.51 -95.0339 1219.4 -95.0339L1234.82 -94.9926L1319.54 -94.7192L1321.5 -94.7092L1397.68 -94.4637L1399.33 -94.4633L1399.48 -94.4495L1404.09 -94.4468L1413.97 -94.2436C1414.45 -94.1735 1414.93 -94.0397 1415.38 -93.8458C1415.93 -93.685 1416.44 -93.4178 1416.89 -93.0594C1417.34 -92.701 1417.71 -92.2585 1417.99 -91.7571C1418.16 -91.2593 1418.23 -90.7305 1418.18 -90.2061C1418.13 -89.6816 1417.98 -89.1735 1417.72 -88.7157L1313.5 91.79L1321 104.634L1390.1 223.625L1394.95 232.034L1406.04 251.082L1409.67 256.756C1416.31 267.258 1417.92 270.05 1416.9 272.693C1416.26 274.268 1415.08 275.567 1413.58 276.361C1412.61 276.865 1411.51 277.253 1410.51 277.253L1368.51 277.154L1302.51 277.298L1236.67 277.298L1221.3 277.32C1218.41 277.276 1215.56 276.723 1212.87 275.686C1203.72 272.197 1199.58 264.129 1198.48 261.763L1164.91 204.024L1129.38 142.864L1125.47 136.099L1113.39 115.404C1111.45 111.902 1109.74 108.872 1108.36 106.308C1103.06 96.5093 1100.92 91.8411 1101.49 87.5481C1101.73 85.911 1102.13 84.3019 1102.69 82.7435C1103.27 81.1437 1104.14 79.6691 1104.97 78.1909C1108.72 71.5377 1112.47 64.8827 1116.22 58.2261L1139.94 17.0791Z" fill="white"/>
</g>
<g filter="url(#filter8_d_3935_146)">
<path d="M843.011 865.252C814.648 913.894 786.289 962.543 757.934 1011.2C757.479 1011.82 756.947 1012.38 756.351 1012.86C752.67 1015.85 746.649 1015.69 742.776 1013.12C741.275 1012.11 740.045 1010.75 739.198 1009.15L730.196 993.335L664.701 880.411L654.626 863.07C653.799 861.278 653.25 859.373 653 857.418C652.433 852.939 653.667 849.453 655.087 845.5C656.367 841.509 658.31 837.764 660.836 834.42C666.204 826.95 697.464 772.058 743.111 690.733L750.64 704.325L762.152 724.178L791.307 776.204L840.793 861.454L843.011 865.252Z" fill="white"/>
<path d="M950.705 676.852L931.467 676.816L924.213 676.78L899.408 676.775L883.524 676.742L867.649 676.691L851.753 676.699L751.918 676.455L817.415 563.01L842.103 520.25C842.97 518.997 843.73 517.826 844.367 516.785C844.796 516.043 844.847 515.953 845.054 515.595C845.845 514.11 846.989 512.841 848.386 511.9C849.598 511.322 850.956 511.118 852.288 511.315C853.62 511.512 854.864 512.101 855.861 513.006C856.323 513.477 856.712 514.015 857.013 514.602C857.964 516.213 859.264 518.467 860.81 521.268C862.532 524.72 864.404 528.246 866.448 531.825C867.181 533.13 867.928 534.409 868.672 535.674L882.391 559.282L884.628 563.15L908.12 603.604L908.96 605.055L924.072 631.066L924.912 632.518L940.035 658.571L950.705 676.852Z" fill="white"/>
<path d="M936.516 704.291L852.112 850.483L851.648 850.478L835.714 823.026L825.348 805.111L809.143 777.215L766.842 704.429L766.568 703.949L758.775 690.586L774.766 690.62L775.236 690.617L779.918 690.624L782.025 690.648L806.506 690.716L806.99 690.709L859.436 690.831L859.952 690.83L891.195 690.914L891.739 690.906L944.115 691.046L936.516 704.291Z" fill="white"/>
<path d="M1148.57 752.357L1089.93 853.919C1088.86 856.093 1087.38 858.042 1085.57 859.66C1079.2 865.321 1071 864.47 1069.11 864.47L1053.69 864.429L968.968 864.155L967.008 864.145L890.832 863.9L889.178 863.899L889.03 863.886L884.418 863.883L874.54 863.68C874.054 863.61 873.579 863.476 873.128 863.282C872.578 863.121 872.065 862.854 871.618 862.495C871.171 862.137 870.799 861.694 870.523 861.193C870.348 860.695 870.282 860.167 870.329 859.642C870.375 859.118 870.533 858.61 870.793 858.152L975.007 677.646L967.514 664.802L898.414 545.811L893.561 537.402L882.471 518.354L878.843 512.681C872.203 502.178 870.591 499.386 871.614 496.744C872.251 495.168 873.425 493.869 874.93 493.075C875.897 492.571 877.002 492.183 878.002 492.183L920.001 492.282L986.001 492.138L1051.84 492.138L1067.21 492.116C1070.1 492.161 1072.95 492.714 1075.64 493.75C1084.79 497.239 1088.92 505.307 1090.03 507.673L1123.6 565.413L1159.13 626.572L1163.04 633.337L1175.12 654.032C1177.05 657.534 1178.77 660.564 1180.15 663.128C1185.45 672.927 1187.58 677.595 1187.02 681.888C1186.78 683.525 1186.37 685.134 1185.82 686.693C1185.43 687.932 1184.37 689.778 1183.54 691.245C1179.78 697.898 1176.03 704.553 1172.29 711.21L1148.57 752.357Z" fill="white"/>
</g>
<g filter="url(#filter9_d_3935_146)">
<path d="M1448.5 688.811C1476.87 640.169 1505.23 591.52 1533.58 542.865C1534.04 542.245 1534.57 541.687 1535.16 541.202C1538.85 538.209 1544.87 538.369 1548.74 540.939C1550.24 541.95 1551.47 543.316 1552.32 544.913L1561.32 560.728L1626.81 673.653L1636.89 690.994C1637.72 692.785 1638.26 694.691 1638.52 696.645C1639.08 701.124 1637.85 704.611 1636.43 708.563C1635.15 712.554 1633.2 716.3 1630.68 719.643C1625.31 727.114 1594.05 782.005 1548.4 863.331L1540.87 849.738L1529.36 829.885L1500.21 777.859L1450.72 692.609L1448.5 688.811Z" fill="white"/>
<path d="M1340.81 877.211L1360.05 877.247L1367.3 877.284L1392.11 877.289L1407.99 877.322L1423.87 877.372L1439.76 877.364L1539.6 877.609L1474.1 991.054L1449.41 1033.81C1448.54 1035.07 1447.78 1036.24 1447.15 1037.28C1446.72 1038.02 1446.67 1038.11 1446.46 1038.47C1445.67 1039.95 1444.53 1041.22 1443.13 1042.16C1441.92 1042.74 1440.56 1042.95 1439.23 1042.75C1437.9 1042.55 1436.65 1041.96 1435.65 1041.06C1435.19 1040.59 1434.8 1040.05 1434.5 1039.46C1433.55 1037.85 1432.25 1035.6 1430.7 1032.8C1428.98 1029.34 1427.11 1025.82 1425.07 1022.24C1424.33 1020.93 1423.59 1019.65 1422.84 1018.39L1409.12 994.781L1406.89 990.913L1383.39 950.46L1382.55 949.008L1367.44 922.997L1366.6 921.546L1351.48 895.492L1340.81 877.211Z" fill="white"/>
<path d="M1355 849.772L1439.4 703.58L1439.87 703.586L1455.8 731.038L1466.17 748.953L1482.37 776.848L1524.67 849.634L1524.95 850.115L1532.74 863.478L1516.75 863.443L1516.28 863.447L1511.6 863.44L1509.49 863.416L1485.01 863.347L1484.53 863.354L1432.08 863.233L1431.56 863.233L1400.32 863.15L1399.78 863.158L1347.4 863.017L1355 849.772Z" fill="white"/>
<path d="M1142.95 801.706L1201.58 700.144C1202.66 697.97 1204.13 696.022 1205.94 694.404C1212.31 688.742 1220.51 689.593 1222.41 689.593L1237.83 689.635L1322.55 689.908L1324.51 689.918L1400.68 690.164L1402.34 690.164L1402.48 690.178L1407.1 690.181L1416.97 690.384C1417.46 690.454 1417.94 690.588 1418.39 690.782C1418.94 690.942 1419.45 691.21 1419.9 691.568C1420.34 691.926 1420.72 692.369 1420.99 692.87C1421.17 693.368 1421.23 693.897 1421.19 694.421C1421.14 694.946 1420.98 695.454 1420.72 695.912L1316.51 876.417L1324 889.262L1393.1 1008.25L1397.95 1016.66L1409.04 1035.71L1412.67 1041.38C1419.31 1051.89 1420.92 1054.68 1419.9 1057.32C1419.26 1058.9 1418.09 1060.19 1416.58 1060.99C1415.62 1061.49 1414.51 1061.88 1413.51 1061.88L1371.51 1061.78L1305.51 1061.93L1239.68 1061.93L1224.3 1061.95C1221.42 1061.9 1218.57 1061.35 1215.87 1060.31C1206.73 1056.82 1202.59 1048.76 1201.49 1046.39L1167.91 988.651L1132.38 927.492L1128.47 920.726L1116.39 900.032C1114.46 896.53 1112.75 893.5 1111.36 890.935C1106.07 881.137 1103.93 876.468 1104.49 872.175C1104.74 870.538 1105.14 868.929 1105.7 867.371C1106.16 865.977 1107.12 864.334 1107.98 862.818C1111.73 856.165 1115.48 849.51 1119.23 842.853L1142.95 801.706Z" fill="white"/>
</g>
<g filter="url(#filter10_d_3935_146)">
<path d="M311.577 -212.566C339.94 -261.209 368.299 -309.858 396.654 -358.513C397.109 -359.132 397.641 -359.691 398.237 -360.176C401.918 -363.168 407.939 -363.009 411.812 -360.439C413.313 -359.427 414.543 -358.062 415.39 -356.464L424.392 -340.649L489.887 -227.725L499.962 -210.384C500.79 -208.593 501.338 -206.687 501.589 -204.732C502.155 -200.254 500.921 -196.767 499.502 -192.814C498.222 -188.824 496.278 -185.078 493.752 -181.735C488.384 -174.264 457.124 -119.372 411.478 -38.0469L403.949 -51.6393L392.436 -71.4924L363.281 -123.518L313.795 -208.768L311.577 -212.566Z" fill="white"/>
<path d="M203.883 -24.1663L223.122 -24.1301L230.375 -24.0938L255.18 -24.0884L271.065 -24.0557L286.939 -24.0051L302.836 -24.0134L402.67 -23.7687L337.173 89.676L312.486 132.436C311.619 133.689 310.858 134.86 310.222 135.901C309.793 136.643 309.742 136.733 309.535 137.091C308.744 138.576 307.6 139.845 306.203 140.786C304.991 141.364 303.632 141.568 302.301 141.371C300.969 141.174 299.725 140.585 298.728 139.68C298.265 139.209 297.877 138.671 297.576 138.084C296.625 136.473 295.325 134.219 293.779 131.418C292.056 127.966 290.185 124.44 288.14 120.861C287.408 119.556 286.66 118.277 285.916 117.012L272.198 93.404L269.961 89.5357L246.468 49.0823L245.628 47.6311L230.517 21.6198L229.677 20.1685L214.553 -5.88514L203.883 -24.1663Z" fill="white"/>
<path d="M218.073 -51.6049L302.476 -197.797L302.94 -197.792L318.874 -170.34L329.24 -152.425L345.446 -124.53L387.747 -51.7432L388.021 -51.2629L395.814 -37.8998L379.822 -37.9345L379.353 -37.9311L374.671 -37.938L372.563 -37.9618L348.082 -38.0305L347.599 -38.0233L295.152 -38.1446L294.637 -38.144L263.393 -38.2279L262.849 -38.2198L210.474 -38.3598L218.073 -51.6049Z" fill="white"/>
<path d="M6.02137 -99.6705L64.6581 -201.233C65.7298 -203.407 67.2085 -205.355 69.0148 -206.973C75.3876 -212.635 83.587 -211.784 85.4786 -211.784L100.903 -211.742L185.62 -211.469L187.58 -211.459L263.756 -211.214L265.41 -211.213L265.558 -211.2L270.17 -211.197L280.048 -210.994C280.534 -210.923 281.009 -210.79 281.46 -210.596C282.01 -210.435 282.523 -210.168 282.97 -209.809C283.417 -209.451 283.79 -209.008 284.066 -208.507C284.24 -208.009 284.306 -207.481 284.26 -206.956C284.213 -206.432 284.055 -205.924 283.796 -205.466L179.581 -24.9599L187.075 -12.1156L256.175 106.875L261.028 115.284L272.118 134.332L275.745 140.006C282.386 150.508 283.998 153.3 282.975 155.943C282.338 157.518 281.163 158.817 279.659 159.611C278.692 160.115 277.587 160.503 276.587 160.503L234.587 160.404L168.587 160.548L102.752 160.548L87.3751 160.57C84.4929 160.526 81.6392 159.973 78.9462 158.937C69.803 155.447 65.6644 147.379 64.5618 145.013L30.9871 87.2738L-4.54399 26.1148L-8.45177 19.3491L-20.533 -1.34542C-22.4661 -4.84745 -24.1804 -7.87726 -25.5641 -10.4418C-30.8609 -20.2403 -32.9956 -24.9085 -32.4345 -29.2015C-32.1896 -30.8386 -31.7863 -32.4476 -31.2306 -34.0061C-30.8371 -35.2459 -29.7773 -37.0915 -28.9496 -38.5587C-25.1963 -45.2119 -21.4461 -51.8669 -17.6987 -58.5235L6.02137 -99.6705Z" fill="white"/>
</g>
<g filter="url(#filter11_d_3935_146)">
<path d="M-291.407 354.823C-319.77 403.466 -348.129 452.115 -376.484 500.77C-376.939 501.389 -377.471 501.948 -378.067 502.433C-381.748 505.425 -387.769 505.266 -391.642 502.696C-393.143 501.684 -394.372 500.319 -395.22 498.721L-404.222 482.906L-469.717 369.982L-479.792 352.641C-480.619 350.85 -481.168 348.944 -481.418 346.989C-481.985 342.511 -480.75 339.024 -479.331 335.071C-478.051 331.08 -476.108 327.335 -473.582 323.992C-468.214 316.521 -436.954 261.629 -391.307 180.304L-383.778 193.896L-372.266 213.75L-343.111 265.775L-293.625 351.026L-291.407 354.823Z" fill="white"/>
<path d="M-183.713 166.424L-202.951 166.388L-210.205 166.351L-235.01 166.346L-250.894 166.313L-266.769 166.262L-282.665 166.271L-382.5 166.026L-317.003 52.5812L-292.315 9.82139C-291.448 8.56839 -290.688 7.39682 -290.051 6.35659C-289.622 5.61394 -289.571 5.52449 -289.364 5.16659C-288.573 3.68125 -287.429 2.41272 -286.032 1.47129C-284.82 0.892984 -283.462 0.689347 -282.13 0.886458C-280.798 1.08357 -279.554 1.67247 -278.557 2.57773C-278.095 3.04845 -277.706 3.58651 -277.405 4.17341C-276.454 5.78448 -275.154 8.03799 -273.608 10.8396C-271.886 14.2915 -270.014 17.8175 -267.97 21.396C-267.237 22.7016 -266.489 23.9804 -265.745 25.245L-252.027 48.8534L-249.79 52.7217L-226.298 93.175L-225.458 94.6263L-210.346 120.638L-209.506 122.089L-194.383 148.143L-183.713 166.424Z" fill="white"/>
<path d="M-197.902 193.862L-282.306 340.055L-282.77 340.049L-298.704 312.597L-309.07 294.682L-325.275 266.787L-367.576 194L-367.85 193.52L-375.643 180.157L-359.652 180.192L-359.182 180.188L-354.5 180.195L-352.393 180.219L-327.912 180.288L-327.428 180.281L-274.982 180.402L-274.466 180.401L-243.223 180.485L-242.679 180.477L-190.303 180.617L-197.902 193.862Z" fill="white"/>
<path d="M14.149 241.928L-44.4878 343.491C-45.5595 345.665 -47.0382 347.613 -48.8445 349.231C-55.2173 354.893 -63.4168 354.041 -65.3083 354.041L-80.7327 354L-165.45 353.727L-167.41 353.717L-243.586 353.471L-245.24 353.471L-245.387 353.457L-250 353.454L-259.878 353.251C-260.364 353.181 -260.839 353.047 -261.29 352.853C-261.84 352.692 -262.353 352.425 -262.8 352.067C-263.247 351.708 -263.619 351.266 -263.895 350.764C-264.07 350.267 -264.136 349.738 -264.089 349.213C-264.043 348.689 -263.885 348.181 -263.625 347.723L-159.411 167.217L-166.904 154.373L-236.004 35.3826L-240.857 26.9738L-251.947 7.9252L-255.575 2.2518C-262.215 -8.2507 -263.827 -11.0425 -262.804 -13.6852C-262.167 -15.2605 -260.993 -16.5593 -259.488 -17.3537C-258.521 -17.8574 -257.416 -18.246 -256.416 -18.246L-214.417 -18.1469L-148.417 -18.2907L-82.5812 -18.2907L-67.2043 -18.3125C-64.322 -18.2681 -61.4684 -17.7151 -58.7754 -16.6791C-49.6322 -13.1897 -45.4936 -5.12164 -44.391 -2.75522L-10.8164 54.9839L24.7146 116.143L28.6224 122.909L40.7036 143.603C42.6366 147.105 44.351 150.135 45.7347 152.7C51.0315 162.498 53.1661 167.166 52.6051 171.459C52.3601 173.096 51.9569 174.705 51.4011 176.264C51.0076 177.504 49.9478 179.349 49.1201 180.816C45.3668 187.47 41.6166 194.125 37.8692 200.781L14.149 241.928Z" fill="white"/>
</g>
<defs>
<filter id="filter0_f_3935_146" x="1004.4" y="438.984" width="734.251" height="722.963" filterUnits="userSpaceOnUse" color-interpolation-filters="sRGB">
<feFlood flood-opacity="0" result="BackgroundImageFix"/>
<feBlend mode="normal" in="SourceGraphic" in2="BackgroundImageFix" result="shape"/>
<feGaussianBlur stdDeviation="50" result="effect1_foregroundBlur_3935_146"/>
</filter>
<filter id="filter1_f_3935_146" x="502.86" y="342.12" width="834.251" height="822.963" filterUnits="userSpaceOnUse" color-interpolation-filters="sRGB">
<feFlood flood-opacity="0" result="BackgroundImageFix"/>
<feBlend mode="normal" in="SourceGraphic" in2="BackgroundImageFix" result="shape"/>
<feGaussianBlur stdDeviation="75" result="effect1_foregroundBlur_3935_146"/>
</filter>
<filter id="filter2_f_3935_146" x="951.029" y="-3.68317" width="834.251" height="822.963" filterUnits="userSpaceOnUse" color-interpolation-filters="sRGB">
<feFlood flood-opacity="0" result="BackgroundImageFix"/>
<feBlend mode="normal" in="SourceGraphic" in2="BackgroundImageFix" result="shape"/>
<feGaussianBlur stdDeviation="75" result="effect1_foregroundBlur_3935_146"/>
</filter>
<filter id="filter3_f_3935_146" x="-182.522" y="-512.393" width="834.251" height="822.964" filterUnits="userSpaceOnUse" color-interpolation-filters="sRGB">
<feFlood flood-opacity="0" result="BackgroundImageFix"/>
<feBlend mode="normal" in="SourceGraphic" in2="BackgroundImageFix" result="shape"/>
<feGaussianBlur stdDeviation="75" result="effect1_foregroundBlur_3935_146"/>
</filter>
<filter id="filter4_f_3935_146" x="951.399" y="-395.643" width="834.251" height="822.963" filterUnits="userSpaceOnUse" color-interpolation-filters="sRGB">
<feFlood flood-opacity="0" result="BackgroundImageFix"/>
<feBlend mode="normal" in="SourceGraphic" in2="BackgroundImageFix" result="shape"/>
<feGaussianBlur stdDeviation="75" result="effect1_foregroundBlur_3935_146"/>
</filter>
<filter id="filter5_f_3935_146" x="-631.56" y="-168.31" width="834.251" height="822.963" filterUnits="userSpaceOnUse" color-interpolation-filters="sRGB">
<feFlood flood-opacity="0" result="BackgroundImageFix"/>
<feBlend mode="normal" in="SourceGraphic" in2="BackgroundImageFix" result="shape"/>
<feGaussianBlur stdDeviation="75" result="effect1_foregroundBlur_3935_146"/>
</filter>
<filter id="filter6_d_3935_146" x="1097.03" y="146.315" width="542.251" height="530.963" filterUnits="userSpaceOnUse" color-interpolation-filters="sRGB">
<feFlood flood-opacity="0" result="BackgroundImageFix"/>
<feColorMatrix in="SourceAlpha" type="matrix" values="0 0 0 0 0 0 0 0 0 0 0 0 0 0 0 0 0 0 127 0" result="hardAlpha"/>
<feOffset dy="4"/>
<feGaussianBlur stdDeviation="2"/>
<feComposite in2="hardAlpha" operator="out"/>
<feColorMatrix type="matrix" values="0 0 0 0 0 0 0 0 0 0 0 0 0 0 0 0 0 0 0.25 0"/>
<feBlend mode="normal" in2="BackgroundImageFix" result="effect1_dropShadow_3935_146"/>
<feBlend mode="normal" in="SourceGraphic" in2="effect1_dropShadow_3935_146" result="shape"/>
</filter>
<filter id="filter7_d_3935_146" x="1097.4" y="-245.643" width="542.251" height="530.963" filterUnits="userSpaceOnUse" color-interpolation-filters="sRGB">
<feFlood flood-opacity="0" result="BackgroundImageFix"/>
<feColorMatrix in="SourceAlpha" type="matrix" values="0 0 0 0 0 0 0 0 0 0 0 0 0 0 0 0 0 0 127 0" result="hardAlpha"/>
<feOffset dy="4"/>
<feGaussianBlur stdDeviation="2"/>
<feComposite in2="hardAlpha" operator="out"/>
<feColorMatrix type="matrix" values="0 0 0 0 0 0 0 0 0 0 0 0 0 0 0 0 0 0 0.25 0"/>
<feBlend mode="normal" in2="BackgroundImageFix" result="effect1_dropShadow_3935_146"/>
<feBlend mode="normal" in="SourceGraphic" in2="effect1_dropShadow_3935_146" result="shape"/>
</filter>
<filter id="filter8_d_3935_146" x="648.859" y="492.116" width="542.251" height="530.963" filterUnits="userSpaceOnUse" color-interpolation-filters="sRGB">
<feFlood flood-opacity="0" result="BackgroundImageFix"/>
<feColorMatrix in="SourceAlpha" type="matrix" values="0 0 0 0 0 0 0 0 0 0 0 0 0 0 0 0 0 0 127 0" result="hardAlpha"/>
<feOffset dy="4"/>
<feGaussianBlur stdDeviation="2"/>
<feComposite in2="hardAlpha" operator="out"/>
<feColorMatrix type="matrix" values="0 0 0 0 0 0 0 0 0 0 0 0 0 0 0 0 0 0 0.25 0"/>
<feBlend mode="normal" in2="BackgroundImageFix" result="effect1_dropShadow_3935_146"/>
<feBlend mode="normal" in="SourceGraphic" in2="effect1_dropShadow_3935_146" result="shape"/>
</filter>
<filter id="filter9_d_3935_146" x="1100.4" y="538.984" width="542.251" height="530.963" filterUnits="userSpaceOnUse" color-interpolation-filters="sRGB">
<feFlood flood-opacity="0" result="BackgroundImageFix"/>
<feColorMatrix in="SourceAlpha" type="matrix" values="0 0 0 0 0 0 0 0 0 0 0 0 0 0 0 0 0 0 127 0" result="hardAlpha"/>
<feOffset dy="4"/>
<feGaussianBlur stdDeviation="2"/>
<feComposite in2="hardAlpha" operator="out"/>
<feColorMatrix type="matrix" values="0 0 0 0 0 0 0 0 0 0 0 0 0 0 0 0 0 0 0.25 0"/>
<feBlend mode="normal" in2="BackgroundImageFix" result="effect1_dropShadow_3935_146"/>
<feBlend mode="normal" in="SourceGraphic" in2="effect1_dropShadow_3935_146" result="shape"/>
</filter>
<filter id="filter10_d_3935_146" x="-36.5216" y="-362.393" width="542.251" height="530.964" filterUnits="userSpaceOnUse" color-interpolation-filters="sRGB">
<feFlood flood-opacity="0" result="BackgroundImageFix"/>
<feColorMatrix in="SourceAlpha" type="matrix" values="0 0 0 0 0 0 0 0 0 0 0 0 0 0 0 0 0 0 127 0" result="hardAlpha"/>
<feOffset dy="4"/>
<feGaussianBlur stdDeviation="2"/>
<feComposite in2="hardAlpha" operator="out"/>
<feColorMatrix type="matrix" values="0 0 0 0 0 0 0 0 0 0 0 0 0 0 0 0 0 0 0.25 0"/>
<feBlend mode="normal" in2="BackgroundImageFix" result="effect1_dropShadow_3935_146"/>
<feBlend mode="normal" in="SourceGraphic" in2="effect1_dropShadow_3935_146" result="shape"/>
</filter>
<filter id="filter11_d_3935_146" x="-485.559" y="-18.3125" width="542.251" height="530.963" filterUnits="userSpaceOnUse" color-interpolation-filters="sRGB">
<feFlood flood-opacity="0" result="BackgroundImageFix"/>
<feColorMatrix in="SourceAlpha" type="matrix" values="0 0 0 0 0 0 0 0 0 0 0 0 0 0 0 0 0 0 127 0" result="hardAlpha"/>
<feOffset dy="4"/>
<feGaussianBlur stdDeviation="2"/>
<feComposite in2="hardAlpha" operator="out"/>
<feColorMatrix type="matrix" values="0 0 0 0 0 0 0 0 0 0 0 0 0 0 0 0 0 0 0.25 0"/>
<feBlend mode="normal" in2="BackgroundImageFix" result="effect1_dropShadow_3935_146"/>
<feBlend mode="normal" in="SourceGraphic" in2="effect1_dropShadow_3935_146" result="shape"/>
</filter>
<linearGradient id="paint0_linear_3935_146" x1="1235.5" y1="602.5" x2="1235.5" y2="832.5" gradientUnits="userSpaceOnUse">
<stop stop-color="#AB60BD"/>
<stop offset="1" stop-color="#765DF2"/>
</linearGradient>
<linearGradient id="paint1_linear_3935_146" x1="1235.5" y1="602.5" x2="1235.5" y2="832.5" gradientUnits="userSpaceOnUse">
<stop stop-color="#AB60BD"/>
<stop offset="1" stop-color="#765DF2"/>
</linearGradient>
<linearGradient id="paint2_linear_3935_146" x1="1235.5" y1="602.5" x2="1235.5" y2="832.5" gradientUnits="userSpaceOnUse">
<stop stop-color="#AB60BD"/>
<stop offset="1" stop-color="#765DF2"/>
</linearGradient>
<linearGradient id="paint3_linear_3935_146" x1="1235.5" y1="602.5" x2="1235.5" y2="832.5" gradientUnits="userSpaceOnUse">
<stop stop-color="#AB60BD"/>
<stop offset="1" stop-color="#765DF2"/>
</linearGradient>
<linearGradient id="paint4_linear_3935_146" x1="1005.56" y1="571.751" x2="794.061" y2="863.751" gradientUnits="userSpaceOnUse">
<stop stop-color="#AB60BD"/>
<stop offset="1" stop-color="#765DF2"/>
</linearGradient>
<linearGradient id="paint5_linear_3935_146" x1="1005.56" y1="571.751" x2="794.061" y2="863.751" gradientUnits="userSpaceOnUse">
<stop stop-color="#AB60BD"/>
<stop offset="1" stop-color="#765DF2"/>
</linearGradient>
<linearGradient id="paint6_linear_3935_146" x1="1005.56" y1="571.751" x2="794.061" y2="863.751" gradientUnits="userSpaceOnUse">
<stop stop-color="#AB60BD"/>
<stop offset="1" stop-color="#765DF2"/>
</linearGradient>
<linearGradient id="paint7_linear_3935_146" x1="1005.56" y1="571.751" x2="794.061" y2="863.751" gradientUnits="userSpaceOnUse">
<stop stop-color="#AB60BD"/>
<stop offset="1" stop-color="#765DF2"/>
</linearGradient>
<linearGradient id="paint8_linear_3935_146" x1="1220.06" y1="641.75" x2="1225.56" y2="260.75" gradientUnits="userSpaceOnUse">
<stop stop-color="#AB60BD"/>
<stop offset="1" stop-color="#E06287"/>
</linearGradient>
<linearGradient id="paint9_linear_3935_146" x1="1220.06" y1="641.75" x2="1225.56" y2="260.75" gradientUnits="userSpaceOnUse">
<stop stop-color="#AB60BD"/>
<stop offset="1" stop-color="#E06287"/>
</linearGradient>
<linearGradient id="paint10_linear_3935_146" x1="1220.06" y1="641.75" x2="1225.56" y2="260.75" gradientUnits="userSpaceOnUse">
<stop stop-color="#AB60BD"/>
<stop offset="1" stop-color="#E06287"/>
</linearGradient>
<linearGradient id="paint11_linear_3935_146" x1="1220.06" y1="641.75" x2="1225.56" y2="260.75" gradientUnits="userSpaceOnUse">
<stop stop-color="#AB60BD"/>
<stop offset="1" stop-color="#E06287"/>
</linearGradient>
<linearGradient id="paint12_linear_3935_146" x1="173.56" y1="253.75" x2="179.56" y2="-61.7499" gradientUnits="userSpaceOnUse">
<stop stop-color="#E06287"/>
<stop offset="1" stop-color="#765DF2"/>
</linearGradient>
<linearGradient id="paint13_linear_3935_146" x1="173.56" y1="253.75" x2="179.56" y2="-61.7499" gradientUnits="userSpaceOnUse">
<stop stop-color="#E06287"/>
<stop offset="1" stop-color="#765DF2"/>
</linearGradient>
<linearGradient id="paint14_linear_3935_146" x1="173.56" y1="253.75" x2="179.56" y2="-61.7499" gradientUnits="userSpaceOnUse">
<stop stop-color="#E06287"/>
<stop offset="1" stop-color="#765DF2"/>
</linearGradient>
<linearGradient id="paint15_linear_3935_146" x1="173.56" y1="253.75" x2="179.56" y2="-61.7499" gradientUnits="userSpaceOnUse">
<stop stop-color="#E06287"/>
<stop offset="1" stop-color="#765DF2"/>
</linearGradient>
<linearGradient id="paint16_linear_3935_146" x1="1354.28" y1="-354.248" x2="1709.44" y2="-149.196" gradientUnits="userSpaceOnUse">
<stop stop-color="#E06287"/>
<stop offset="1" stop-color="#765DF2"/>
</linearGradient>
<linearGradient id="paint17_linear_3935_146" x1="1354.28" y1="-354.248" x2="1709.44" y2="-149.196" gradientUnits="userSpaceOnUse">
<stop stop-color="#E06287"/>
<stop offset="1" stop-color="#765DF2"/>
</linearGradient>
<linearGradient id="paint18_linear_3935_146" x1="1354.28" y1="-354.248" x2="1709.44" y2="-149.196" gradientUnits="userSpaceOnUse">
<stop stop-color="#E06287"/>
<stop offset="1" stop-color="#765DF2"/>
</linearGradient>
<linearGradient id="paint19_linear_3935_146" x1="1354.28" y1="-354.248" x2="1709.44" y2="-149.196" gradientUnits="userSpaceOnUse">
<stop stop-color="#E06287"/>
<stop offset="1" stop-color="#765DF2"/>
</linearGradient>
<linearGradient id="paint20_linear_3935_146" x1="-98.5" y1="201" x2="31.9997" y2="109" gradientUnits="userSpaceOnUse">
<stop stop-color="#E06287"/>
<stop offset="1" stop-color="#AB60BD"/>
</linearGradient>
<linearGradient id="paint21_linear_3935_146" x1="-98.5" y1="201" x2="31.9997" y2="109" gradientUnits="userSpaceOnUse">
<stop stop-color="#E06287"/>
<stop offset="1" stop-color="#AB60BD"/>
</linearGradient>
<linearGradient id="paint22_linear_3935_146" x1="-98.5" y1="201" x2="31.9997" y2="109" gradientUnits="userSpaceOnUse">
<stop stop-color="#E06287"/>
<stop offset="1" stop-color="#AB60BD"/>
</linearGradient>
<linearGradient id="paint23_linear_3935_146" x1="-98.5" y1="201" x2="31.9997" y2="109" gradientUnits="userSpaceOnUse">
<stop stop-color="#E06287"/>
<stop offset="1" stop-color="#AB60BD"/>
</linearGradient>
</defs>
</svg>
