<svg width="393" height="852" viewBox="0 0 393 852" fill="none" xmlns="http://www.w3.org/2000/svg">
<g filter="url(#filter0_f_4140_3154)">
<path d="M102.055 -118.198C117.556 -145.315 133.061 -172.431 148.57 -199.547C148.742 -199.937 148.862 -200.347 148.93 -200.768C149.346 -203.367 147.6 -206.215 145.291 -207.362C144.389 -207.803 143.392 -208.015 142.39 -207.979L132.296 -207.917L59.883 -208.061L48.7585 -208.091C47.6684 -207.992 46.6007 -207.727 45.5923 -207.305C43.2838 -206.335 41.9511 -204.775 40.4459 -202.997C38.8838 -201.275 37.6236 -199.302 36.718 -197.162C34.6179 -192.511 16.9188 -162.27 -9.48866 -117.786L-0.870957 -117.939L11.8592 -117.915L44.9379 -118.339L99.616 -118.211L102.055 -118.198Z" fill="url(#paint0_linear_4140_3154)"/>
<path d="M41.4199 -14.2109L36.0667 -23.4426L34.0374 -26.9171L27.1551 -38.8317L22.7337 -46.4534L18.3067 -54.0652L13.9018 -61.7039L-13.905 -109.595L-50.2366 -46.6673L-63.9308 -22.9483C-64.2922 -22.1842 -64.6442 -21.494 -64.9674 -20.8997C-65.2052 -20.4878 -65.2338 -20.4382 -65.3485 -20.2397C-65.8425 -19.4476 -66.1347 -18.5463 -66.1995 -17.6141C-66.1412 -16.8716 -65.8622 -16.1624 -65.3982 -15.5774C-64.9342 -14.9923 -64.3063 -14.5581 -63.5949 -14.3302C-63.2404 -14.2384 -62.8741 -14.201 -62.5088 -14.2193C-61.471 -14.2091 -60.028 -14.2098 -58.2532 -14.244C-56.1173 -14.374 -53.9044 -14.453 -51.6183 -14.4632C-50.788 -14.4736 -49.9663 -14.469 -49.1524 -14.4624L-34.0064 -14.4199L-31.5277 -14.4182L-5.57887 -14.3526L-4.64874 -14.3516L12.038 -14.3063L12.9681 -14.3053L29.6784 -14.2663L41.4199 -14.2109Z" fill="url(#paint1_linear_4140_3154)"/>
<path d="M50.6655 -28.6374L97.4849 -109.73L97.3535 -109.952L79.7466 -109.992L68.2654 -110.003L50.3704 -110.051L3.67266 -110.185L3.36593 -110.183L-5.21492 -110.221L-0.763024 -102.548L-0.634471 -102.322L0.667411 -100.074L1.26338 -99.0687L8.08617 -87.3274L8.21683 -87.0932L22.8212 -61.9322L22.9639 -61.6843L31.6696 -46.6987L31.8166 -46.4351L46.4104 -21.3133L50.6655 -28.6374Z" fill="url(#paint2_linear_4140_3154)"/>
<path d="M132.568 59.8981L165.095 3.56131C165.842 2.44349 166.367 1.19281 166.644 -0.123611C167.596 -4.75532 164.913 -8.45812 164.388 -9.36679L160.091 -16.765L136.463 -57.3862L135.914 -58.3249L114.669 -94.8509L114.21 -95.6452L114.163 -95.7124L112.882 -97.9274L110.045 -102.616C109.876 -102.83 109.68 -103.021 109.462 -103.184C109.232 -103.404 108.962 -103.576 108.665 -103.692C108.369 -103.807 108.053 -103.863 107.736 -103.857C107.448 -103.802 107.176 -103.687 106.937 -103.52C106.698 -103.352 106.498 -103.135 106.35 -102.883L48.5412 -2.75666L40.2927 -2.79398L-36.0337 -2.98673L-41.4191 -2.98574L-53.6456 -3.0301L-57.3772 -3.19925C-64.2641 -3.47619 -66.0523 -3.47629 -67.0383 -2.25217C-67.6182 -1.50895 -67.9164 -0.584701 -67.8807 0.358446C-67.8546 0.962513 -67.7348 1.60106 -67.4575 2.08144L-55.7612 22.2302L-37.5252 53.9755L-19.2657 85.602L-15.0114 92.9949C-14.1907 94.3672 -13.1335 95.5847 -11.8889 96.591C-7.67686 100.015 -2.6532 99.7659 -1.21059 99.6393L35.8384 99.7541L75.073 99.8602L79.407 99.861L92.6991 99.925C94.9175 99.8823 96.8485 99.8656 98.4642 99.819C104.64 99.6459 107.475 99.3766 109.382 97.9165C110.1 97.3447 110.761 96.7047 111.356 96.0055C111.842 95.4726 112.435 94.4516 112.91 93.6471C115.065 89.9988 117.222 86.3515 119.381 82.7051L132.568 59.8981Z" fill="url(#paint3_linear_4140_3154)"/>
</g>
<g filter="url(#filter1_d_4140_3154)">
<path d="M102.055 -118.199C117.556 -145.315 133.061 -172.431 148.57 -199.547C148.742 -199.937 148.862 -200.348 148.93 -200.769C149.346 -203.367 147.6 -206.215 145.291 -207.363C144.389 -207.804 143.392 -208.016 142.39 -207.979L132.296 -207.918L59.883 -208.061L48.7585 -208.091C47.6684 -207.992 46.6007 -207.727 45.5923 -207.305C43.2838 -206.335 41.9511 -204.775 40.4459 -202.997C38.8838 -201.275 37.6236 -199.303 36.718 -197.162C34.6179 -192.511 16.9188 -162.27 -9.48866 -117.787L-0.870957 -117.94L11.8592 -117.916L44.9379 -118.339L99.616 -118.211L102.055 -118.199Z" fill="white"/>
<path d="M41.4199 -14.2114L36.0667 -23.4432L34.0374 -26.9177L27.1551 -38.8322L22.7337 -46.4539L18.3067 -54.0657L13.9018 -61.7044L-13.905 -109.596L-50.2366 -46.6678L-63.9308 -22.9489C-64.2922 -22.1848 -64.6442 -21.4946 -64.9674 -20.9003C-65.2052 -20.4884 -65.2338 -20.4387 -65.3485 -20.2402C-65.8425 -19.4481 -66.1347 -18.5468 -66.1995 -17.6147C-66.1412 -16.8721 -65.8622 -16.1629 -65.3982 -15.5779C-64.9342 -14.9929 -64.3063 -14.5587 -63.5949 -14.3308C-63.2404 -14.239 -62.8741 -14.2016 -62.5088 -14.2199C-61.471 -14.2097 -60.028 -14.2104 -58.2532 -14.2445C-56.1173 -14.3746 -53.9044 -14.4536 -51.6183 -14.4638C-50.788 -14.4741 -49.9663 -14.4696 -49.1524 -14.4629L-34.0064 -14.4204L-31.5277 -14.4187L-5.57887 -14.3531L-4.64874 -14.3521L12.038 -14.3069L12.9681 -14.3059L29.6784 -14.2669L41.4199 -14.2114Z" fill="white"/>
<path d="M50.6655 -28.6379L97.4849 -109.731L97.3535 -109.952L79.7466 -109.993L68.2654 -110.004L50.3704 -110.052L3.67266 -110.185L3.36593 -110.184L-5.21492 -110.221L-0.763024 -102.549L-0.634471 -102.322L0.667411 -100.075L1.26338 -99.0692L8.08617 -87.328L8.21683 -87.0937L22.8212 -61.9327L22.9639 -61.6849L31.6696 -46.6992L31.8166 -46.4357L46.4104 -21.3139L50.6655 -28.6379Z" fill="white"/>
<path d="M132.568 59.8975L165.095 3.56076C165.842 2.44294 166.367 1.19226 166.644 -0.12416C167.596 -4.75587 164.913 -8.45867 164.388 -9.36734L160.091 -16.7656L136.463 -57.3867L135.914 -58.3254L114.669 -94.8514L114.21 -95.6457L114.163 -95.7129L112.882 -97.928L110.045 -102.617C109.876 -102.831 109.68 -103.022 109.462 -103.185C109.232 -103.404 108.962 -103.577 108.665 -103.692C108.369 -103.807 108.053 -103.864 107.736 -103.857C107.448 -103.803 107.176 -103.688 106.937 -103.52C106.698 -103.352 106.498 -103.135 106.35 -102.884L48.5412 -2.75721L40.2927 -2.79453L-36.0337 -2.98728L-41.4191 -2.98628L-53.6456 -3.03065L-57.3772 -3.1998C-64.2641 -3.47674 -66.0523 -3.47683 -67.0383 -2.25272C-67.6182 -1.5095 -67.9164 -0.58525 -67.8807 0.357896C-67.8546 0.961964 -67.7348 1.60051 -67.4575 2.08089L-55.7612 22.2296L-37.5252 53.975L-19.2657 85.6014L-15.0114 92.9944C-14.1907 94.3666 -13.1335 95.5841 -11.8889 96.5905C-7.67686 100.015 -2.6532 99.7654 -1.21059 99.6387L35.8384 99.7536L75.073 99.8597L79.407 99.8605L92.6991 99.9245C94.9175 99.8818 96.8485 99.865 98.4642 99.8185C104.64 99.6453 107.475 99.3761 109.382 97.9159C110.1 97.3441 110.761 96.7042 111.356 96.005C111.842 95.4721 112.435 94.4511 112.91 93.6466C115.065 89.9983 117.222 86.3509 119.381 82.7045L132.568 59.8975Z" fill="white"/>
</g>
<g filter="url(#filter2_f_4140_3154)">
<path d="M618.934 638.824C640.206 602.342 661.475 565.855 682.741 529.363C683.082 528.899 683.481 528.48 683.929 528.116C686.69 525.872 691.205 525.991 694.11 527.919C695.236 528.678 696.158 529.702 696.793 530.9L703.545 542.761L752.666 627.455L760.222 640.46C760.843 641.804 761.255 643.233 761.442 644.699C761.867 648.058 760.941 650.673 759.877 653.637C758.917 656.631 757.459 659.44 755.565 661.947C751.539 667.55 728.094 708.719 693.859 769.713L688.212 759.519L679.578 744.629L657.712 705.609L620.597 641.672L618.934 638.824Z" fill="url(#paint4_linear_4140_3154)"/>
<path d="M538.163 780.123L552.592 780.151L558.032 780.178L576.636 780.182L588.55 780.206L600.455 780.244L612.378 780.238L687.253 780.422L638.131 865.505L619.615 897.575C618.965 898.515 618.395 899.393 617.917 900.174C617.596 900.731 617.557 900.798 617.402 901.066C616.808 902.18 615.951 903.132 614.903 903.838C613.994 904.271 612.975 904.424 611.976 904.276C610.978 904.128 610.045 903.687 609.297 903.008C608.95 902.655 608.658 902.251 608.433 901.811C607.719 900.603 606.745 898.913 605.585 896.811C604.293 894.222 602.89 891.578 601.356 888.894C600.807 887.915 600.246 886.956 599.688 886.007L589.399 868.301L587.721 865.4L570.102 835.06L569.472 833.971L558.138 814.463L557.508 813.375L546.166 793.834L538.163 780.123Z" fill="url(#paint5_linear_4140_3154)"/>
<path d="M548.805 759.544L612.108 649.9L612.456 649.904L624.406 670.493L632.181 683.93L644.335 704.851L676.061 759.441L676.266 759.801L682.111 769.823L670.117 769.797L669.765 769.8L666.254 769.795L664.673 769.777L646.313 769.725L645.95 769.731L606.615 769.64L606.228 769.64L582.796 769.577L582.388 769.583L543.106 769.478L548.805 759.544Z" fill="url(#paint6_linear_4140_3154)"/>
<path d="M389.767 723.495L433.744 647.323C434.548 645.693 435.657 644.232 437.012 643.018C441.791 638.772 447.941 639.41 449.36 639.41L460.928 639.441L524.466 639.646L525.936 639.654L583.068 639.838L584.308 639.838L584.419 639.848L587.878 639.85L595.287 640.003C595.651 640.055 596.008 640.156 596.346 640.301C596.758 640.422 597.143 640.622 597.479 640.891C597.814 641.16 598.093 641.492 598.3 641.868C598.431 642.241 598.48 642.638 598.446 643.031C598.411 643.424 598.292 643.805 598.098 644.149L519.937 779.528L525.557 789.161L577.382 878.404L581.022 884.711L589.339 898.997L592.06 903.252C597.04 911.129 598.249 913.223 597.482 915.205C597.004 916.386 596.123 917.361 594.995 917.956C594.27 918.334 593.441 918.626 592.691 918.626L561.191 918.551L511.691 918.659L462.315 918.659L450.782 918.676C448.62 918.642 446.48 918.228 444.46 917.451C437.603 914.834 434.499 908.783 433.672 907.008L408.491 863.704L381.843 817.834L378.912 812.76L369.851 797.239C368.401 794.613 367.115 792.34 366.078 790.417C362.105 783.068 360.504 779.567 360.925 776.347C361.109 775.119 361.411 773.912 361.828 772.744C362.123 771.814 362.918 770.429 363.539 769.329C366.354 764.339 369.166 759.348 371.977 754.355L389.767 723.495Z" fill="url(#paint7_linear_4140_3154)"/>
</g>
<g filter="url(#filter3_f_4140_3154)">
<path d="M166.695 1064.37C145.422 1100.85 124.153 1137.34 102.887 1173.83C102.546 1174.29 102.147 1174.71 101.7 1175.07C98.9386 1177.32 94.4235 1177.2 91.5186 1175.27C90.3924 1174.51 89.4705 1173.49 88.8352 1172.29L82.0837 1160.43L32.9621 1075.74L25.4062 1062.73C24.7853 1061.39 24.3738 1059.96 24.1861 1058.49C23.7614 1055.13 24.687 1052.52 25.7514 1049.55C26.7114 1046.56 28.1691 1043.75 30.0637 1041.24C34.0896 1035.64 57.5346 994.472 91.7696 933.478L97.4162 943.672L106.05 958.562L127.917 997.582L165.031 1061.52L166.695 1064.37Z" fill="url(#paint8_linear_4140_3154)"/>
<path d="M247.465 923.068L233.037 923.041L227.596 923.013L208.993 923.009L197.079 922.985L185.173 922.947L173.251 922.953L98.3752 922.769L147.498 837.686L166.013 805.616C166.664 804.676 167.234 803.798 167.712 803.017C168.033 802.46 168.072 802.393 168.227 802.125C168.82 801.011 169.678 800.06 170.726 799.353C171.635 798.92 172.654 798.767 173.652 798.915C174.651 799.063 175.584 799.504 176.332 800.183C176.679 800.536 176.97 800.94 177.196 801.38C177.909 802.588 178.884 804.278 180.044 806.38C181.336 808.969 182.739 811.613 184.273 814.297C184.822 815.276 185.383 816.235 185.941 817.184L196.23 834.89L197.907 837.791L215.527 868.131L216.157 869.22L227.49 888.728L228.12 889.817L239.463 909.357L247.465 923.068Z" fill="url(#paint9_linear_4140_3154)"/>
<path d="M236.823 943.647L173.52 1053.29L173.172 1053.29L161.222 1032.7L153.447 1019.26L141.293 998.34L109.568 943.75L109.362 943.39L103.518 933.368L115.511 933.394L115.863 933.391L119.375 933.396L120.955 933.414L139.316 933.466L139.679 933.46L179.014 933.551L179.4 933.551L202.833 933.614L203.241 933.608L242.523 933.713L236.823 943.647Z" fill="url(#paint10_linear_4140_3154)"/>
<path d="M395.862 979.696L351.884 1055.87C351.08 1057.5 349.971 1058.96 348.617 1060.17C343.837 1064.42 337.687 1063.78 336.269 1063.78L324.7 1063.75L261.162 1063.54L259.693 1063.54L202.56 1063.35L201.32 1063.35L201.209 1063.34L197.75 1063.34L190.342 1063.19C189.977 1063.14 189.621 1063.04 189.282 1062.89C188.87 1062.77 188.485 1062.57 188.15 1062.3C187.815 1062.03 187.535 1061.7 187.328 1061.32C187.198 1060.95 187.148 1060.55 187.183 1060.16C187.218 1059.77 187.336 1059.39 187.531 1059.04L265.692 923.663L260.072 914.03L208.247 824.787L204.607 818.48L196.29 804.194L193.569 799.939C188.589 792.062 187.38 789.968 188.147 787.986C188.625 786.805 189.505 785.831 190.634 785.235C191.359 784.857 192.188 784.566 192.938 784.566L224.437 784.64L273.937 784.532L323.314 784.532L334.847 784.516C337.008 784.549 339.149 784.964 341.168 785.741C348.026 788.358 351.13 794.409 351.957 796.184L377.138 839.488L403.786 885.357L406.717 890.432L415.778 905.952C417.227 908.579 418.513 910.851 419.551 912.775C423.523 920.124 425.124 923.625 424.704 926.844C424.52 928.072 424.218 929.279 423.801 930.448C423.506 931.378 422.711 932.762 422.09 933.862C419.275 938.852 416.462 943.843 413.652 948.836L395.862 979.696Z" fill="url(#paint11_linear_4140_3154)"/>
</g>
<g filter="url(#filter4_d_4140_3154)">
<path d="M618.934 638.824C640.206 602.342 661.475 565.855 682.741 529.363C683.082 528.899 683.481 528.48 683.929 528.116C686.69 525.872 691.205 525.991 694.11 527.919C695.236 528.678 696.158 529.702 696.793 530.9L703.545 542.761L752.666 627.455L760.222 640.46C760.843 641.804 761.255 643.233 761.442 644.699C761.867 648.058 760.941 650.673 759.877 653.637C758.917 656.631 757.459 659.44 755.565 661.947C751.539 667.55 728.094 708.719 693.859 769.713L688.212 759.519L679.578 744.629L657.712 705.609L620.597 641.672L618.934 638.824Z" fill="white"/>
<path d="M538.163 780.123L552.592 780.151L558.032 780.178L576.636 780.182L588.55 780.206L600.455 780.244L612.378 780.238L687.253 780.422L638.131 865.505L619.615 897.575C618.965 898.515 618.395 899.393 617.917 900.174C617.596 900.731 617.557 900.798 617.402 901.066C616.808 902.18 615.951 903.132 614.903 903.838C613.994 904.271 612.975 904.424 611.976 904.276C610.978 904.128 610.045 903.687 609.297 903.008C608.95 902.655 608.658 902.251 608.433 901.811C607.719 900.603 606.745 898.913 605.585 896.811C604.293 894.222 602.89 891.578 601.356 888.894C600.807 887.915 600.246 886.956 599.688 886.007L589.399 868.301L587.721 865.4L570.102 835.06L569.472 833.971L558.138 814.463L557.508 813.375L546.166 793.834L538.163 780.123Z" fill="white"/>
<path d="M548.805 759.544L612.108 649.9L612.456 649.904L624.406 670.493L632.181 683.93L644.335 704.851L676.061 759.441L676.266 759.801L682.111 769.823L670.117 769.797L669.765 769.8L666.254 769.795L664.673 769.777L646.313 769.725L645.95 769.731L606.615 769.64L606.228 769.64L582.796 769.577L582.388 769.583L543.106 769.478L548.805 759.544Z" fill="white"/>
<path d="M389.767 723.495L433.744 647.323C434.548 645.693 435.657 644.232 437.012 643.018C441.791 638.772 447.941 639.41 449.36 639.41L460.928 639.441L524.466 639.646L525.936 639.654L583.068 639.838L584.308 639.838L584.419 639.848L587.878 639.85L595.287 640.003C595.651 640.055 596.008 640.156 596.346 640.301C596.758 640.422 597.143 640.622 597.479 640.891C597.814 641.16 598.093 641.492 598.3 641.868C598.431 642.241 598.48 642.638 598.446 643.031C598.411 643.424 598.292 643.805 598.098 644.149L519.937 779.528L525.557 789.161L577.382 878.404L581.022 884.711L589.339 898.997L592.06 903.252C597.04 911.129 598.249 913.223 597.482 915.205C597.004 916.386 596.123 917.361 594.995 917.956C594.27 918.334 593.441 918.626 592.691 918.626L561.191 918.551L511.691 918.659L462.315 918.659L450.782 918.676C448.62 918.642 446.48 918.228 444.46 917.451C437.603 914.834 434.499 908.783 433.672 907.008L408.491 863.704L381.843 817.834L378.912 812.76L369.851 797.239C368.401 794.613 367.115 792.34 366.078 790.417C362.105 783.068 360.504 779.567 360.925 776.347C361.109 775.119 361.411 773.912 361.828 772.744C362.123 771.814 362.918 770.429 363.539 769.329C366.354 764.339 369.166 759.348 371.977 754.355L389.767 723.495Z" fill="white"/>
</g>
<g filter="url(#filter5_d_4140_3154)">
<path d="M166.696 1064.37C145.423 1100.85 124.154 1137.33 102.888 1173.83C102.547 1174.29 102.148 1174.71 101.701 1175.07C98.9396 1177.32 94.4244 1177.2 91.5195 1175.27C90.3933 1174.51 89.4715 1173.49 88.8362 1172.29L82.0847 1160.43L32.9631 1075.73L25.4072 1062.73C24.7863 1061.39 24.3748 1059.96 24.1871 1058.49C23.7624 1055.13 24.688 1052.52 25.7523 1049.55C26.7124 1046.56 28.1701 1043.75 30.0646 1041.24C34.0905 1035.64 57.5356 994.47 91.7706 933.476L97.4171 943.67L106.051 958.56L127.918 997.58L165.032 1061.52L166.696 1064.37Z" fill="white"/>
<path d="M247.466 923.066L233.038 923.039L227.597 923.011L208.994 923.007L197.08 922.983L185.174 922.945L173.252 922.951L98.3762 922.767L147.499 837.684L166.014 805.614C166.665 804.674 167.235 803.796 167.713 803.015C168.034 802.459 168.073 802.391 168.228 802.123C168.821 801.009 169.679 800.058 170.727 799.352C171.636 798.918 172.655 798.765 173.653 798.913C174.652 799.061 175.585 799.502 176.333 800.181C176.68 800.534 176.971 800.938 177.197 801.378C177.91 802.586 178.885 804.277 180.045 806.378C181.337 808.967 182.74 811.611 184.274 814.295C184.823 815.274 185.384 816.233 185.942 817.182L196.231 834.888L197.908 837.789L215.528 868.129L216.158 869.218L227.491 888.726L228.121 889.815L239.464 909.355L247.466 923.066Z" fill="white"/>
<path d="M236.824 943.645L173.521 1053.29L173.173 1053.28L161.223 1032.7L153.448 1019.26L141.294 998.338L109.569 943.748L109.363 943.388L103.519 933.366L115.512 933.392L115.864 933.389L119.376 933.394L120.956 933.412L139.317 933.464L139.68 933.458L179.015 933.549L179.401 933.549L202.834 933.612L203.242 933.606L242.524 933.711L236.824 943.645Z" fill="white"/>
<path d="M395.863 979.694L351.885 1055.87C351.081 1057.5 349.972 1058.96 348.617 1060.17C343.838 1064.42 337.688 1063.78 336.27 1063.78L324.701 1063.75L261.163 1063.54L259.694 1063.54L202.561 1063.35L201.321 1063.35L201.21 1063.34L197.751 1063.34L190.342 1063.19C189.978 1063.13 189.622 1063.03 189.283 1062.89C188.871 1062.77 188.486 1062.57 188.151 1062.3C187.816 1062.03 187.536 1061.7 187.329 1061.32C187.199 1060.95 187.149 1060.55 187.184 1060.16C187.219 1059.76 187.337 1059.38 187.532 1059.04L265.693 923.661L260.073 914.028L208.248 824.785L204.608 818.478L196.291 804.192L193.57 799.937C188.59 792.06 187.381 789.966 188.148 787.984C188.626 786.803 189.506 785.829 190.635 785.233C191.36 784.855 192.189 784.564 192.939 784.564L224.438 784.638L273.938 784.53L323.315 784.53L334.848 784.514C337.009 784.547 339.15 784.962 341.169 785.739C348.027 788.356 351.131 794.407 351.958 796.182L377.139 839.486L403.787 885.355L406.718 890.43L415.779 905.95C417.228 908.577 418.514 910.849 419.552 912.773C423.524 920.122 425.125 923.623 424.705 926.843C424.521 928.07 424.219 929.277 423.802 930.446C423.507 931.376 422.712 932.76 422.091 933.86C419.276 938.85 416.463 943.842 413.653 948.834L395.863 979.694Z" fill="white"/>
</g>
<defs>
<filter id="filter0_f_4140_3154" x="-142.884" y="-283.091" width="384.73" height="458.016" filterUnits="userSpaceOnUse" color-interpolation-filters="sRGB">
<feFlood flood-opacity="0" result="BackgroundImageFix"/>
<feBlend mode="normal" in="SourceGraphic" in2="BackgroundImageFix" result="shape"/>
<feGaussianBlur stdDeviation="37.5" result="effect1_foregroundBlur_4140_3154"/>
</filter>
<filter id="filter1_d_4140_3154" x="-69.8838" y="-208.091" width="238.73" height="312.016" filterUnits="userSpaceOnUse" color-interpolation-filters="sRGB">
<feFlood flood-opacity="0" result="BackgroundImageFix"/>
<feColorMatrix in="SourceAlpha" type="matrix" values="0 0 0 0 0 0 0 0 0 0 0 0 0 0 0 0 0 0 127 0" result="hardAlpha"/>
<feOffset dy="2"/>
<feGaussianBlur stdDeviation="1"/>
<feComposite in2="hardAlpha" operator="out"/>
<feColorMatrix type="matrix" values="0 0 0 0 0 0 0 0 0 0 0 0 0 0 0 0 0 0 0.25 0"/>
<feBlend mode="normal" in2="BackgroundImageFix" result="effect1_dropShadow_4140_3154"/>
<feBlend mode="normal" in="SourceGraphic" in2="effect1_dropShadow_4140_3154" result="shape"/>
</filter>
<filter id="filter2_f_4140_3154" x="248.359" y="413.953" width="625.688" height="617.223" filterUnits="userSpaceOnUse" color-interpolation-filters="sRGB">
<feFlood flood-opacity="0" result="BackgroundImageFix"/>
<feBlend mode="normal" in="SourceGraphic" in2="BackgroundImageFix" result="shape"/>
<feGaussianBlur stdDeviation="56.25" result="effect1_foregroundBlur_4140_3154"/>
</filter>
<filter id="filter3_f_4140_3154" x="-88.4189" y="672.016" width="625.688" height="617.222" filterUnits="userSpaceOnUse" color-interpolation-filters="sRGB">
<feFlood flood-opacity="0" result="BackgroundImageFix"/>
<feBlend mode="normal" in="SourceGraphic" in2="BackgroundImageFix" result="shape"/>
<feGaussianBlur stdDeviation="56.25" result="effect1_foregroundBlur_4140_3154"/>
</filter>
<filter id="filter4_d_4140_3154" x="357.859" y="526.453" width="406.688" height="398.223" filterUnits="userSpaceOnUse" color-interpolation-filters="sRGB">
<feFlood flood-opacity="0" result="BackgroundImageFix"/>
<feColorMatrix in="SourceAlpha" type="matrix" values="0 0 0 0 0 0 0 0 0 0 0 0 0 0 0 0 0 0 127 0" result="hardAlpha"/>
<feOffset dy="3"/>
<feGaussianBlur stdDeviation="1.5"/>
<feComposite in2="hardAlpha" operator="out"/>
<feColorMatrix type="matrix" values="0 0 0 0 0 0 0 0 0 0 0 0 0 0 0 0 0 0 0.25 0"/>
<feBlend mode="normal" in2="BackgroundImageFix" result="effect1_dropShadow_4140_3154"/>
<feBlend mode="normal" in="SourceGraphic" in2="effect1_dropShadow_4140_3154" result="shape"/>
</filter>
<filter id="filter5_d_4140_3154" x="21.082" y="784.514" width="406.688" height="398.222" filterUnits="userSpaceOnUse" color-interpolation-filters="sRGB">
<feFlood flood-opacity="0" result="BackgroundImageFix"/>
<feColorMatrix in="SourceAlpha" type="matrix" values="0 0 0 0 0 0 0 0 0 0 0 0 0 0 0 0 0 0 127 0" result="hardAlpha"/>
<feOffset dy="3"/>
<feGaussianBlur stdDeviation="1.5"/>
<feComposite in2="hardAlpha" operator="out"/>
<feColorMatrix type="matrix" values="0 0 0 0 0 0 0 0 0 0 0 0 0 0 0 0 0 0 0.25 0"/>
<feBlend mode="normal" in2="BackgroundImageFix" result="effect1_dropShadow_4140_3154"/>
<feBlend mode="normal" in="SourceGraphic" in2="effect1_dropShadow_4140_3154" result="shape"/>
</filter>
<linearGradient id="paint0_linear_4140_3154" x1="147.5" y1="61.9616" x2="-7.13813e-06" y2="61.9616" gradientUnits="userSpaceOnUse">
<stop stop-color="#765DF2"/>
<stop offset="1" stop-color="#E06287"/>
</linearGradient>
<linearGradient id="paint1_linear_4140_3154" x1="147.5" y1="61.9616" x2="-7.13813e-06" y2="61.9616" gradientUnits="userSpaceOnUse">
<stop stop-color="#765DF2"/>
<stop offset="1" stop-color="#E06287"/>
</linearGradient>
<linearGradient id="paint2_linear_4140_3154" x1="147.5" y1="61.9616" x2="-7.13813e-06" y2="61.9616" gradientUnits="userSpaceOnUse">
<stop stop-color="#765DF2"/>
<stop offset="1" stop-color="#E06287"/>
</linearGradient>
<linearGradient id="paint3_linear_4140_3154" x1="147.5" y1="61.9616" x2="-7.13813e-06" y2="61.9616" gradientUnits="userSpaceOnUse">
<stop stop-color="#765DF2"/>
<stop offset="1" stop-color="#E06287"/>
</linearGradient>
<linearGradient id="paint4_linear_4140_3154" x1="515.421" y1="988.561" x2="519.921" y2="751.936" gradientUnits="userSpaceOnUse">
<stop stop-color="#E06287"/>
<stop offset="1" stop-color="#765DF2"/>
</linearGradient>
<linearGradient id="paint5_linear_4140_3154" x1="515.421" y1="988.561" x2="519.921" y2="751.936" gradientUnits="userSpaceOnUse">
<stop stop-color="#E06287"/>
<stop offset="1" stop-color="#765DF2"/>
</linearGradient>
<linearGradient id="paint6_linear_4140_3154" x1="515.421" y1="988.561" x2="519.921" y2="751.936" gradientUnits="userSpaceOnUse">
<stop stop-color="#E06287"/>
<stop offset="1" stop-color="#765DF2"/>
</linearGradient>
<linearGradient id="paint7_linear_4140_3154" x1="515.421" y1="988.561" x2="519.921" y2="751.936" gradientUnits="userSpaceOnUse">
<stop stop-color="#E06287"/>
<stop offset="1" stop-color="#765DF2"/>
</linearGradient>
<linearGradient id="paint8_linear_4140_3154" x1="311.376" y1="948.998" x2="409.25" y2="879.998" gradientUnits="userSpaceOnUse">
<stop stop-color="#E06287"/>
<stop offset="1" stop-color="#AB60BD"/>
</linearGradient>
<linearGradient id="paint9_linear_4140_3154" x1="311.376" y1="948.998" x2="409.25" y2="879.998" gradientUnits="userSpaceOnUse">
<stop stop-color="#E06287"/>
<stop offset="1" stop-color="#AB60BD"/>
</linearGradient>
<linearGradient id="paint10_linear_4140_3154" x1="311.376" y1="948.998" x2="409.25" y2="879.998" gradientUnits="userSpaceOnUse">
<stop stop-color="#E06287"/>
<stop offset="1" stop-color="#AB60BD"/>
</linearGradient>
<linearGradient id="paint11_linear_4140_3154" x1="311.376" y1="948.998" x2="409.25" y2="879.998" gradientUnits="userSpaceOnUse">
<stop stop-color="#E06287"/>
<stop offset="1" stop-color="#AB60BD"/>
</linearGradient>
</defs>
</svg>
