<svg width="20" height="20" viewBox="0 0 20 20" fill="none" xmlns="http://www.w3.org/2000/svg">
<rect width="20" height="20" fill="#F5F5F5"/>
<g id="About" clip-path="url(#clip0_3684_5359)">
<rect width="1280" height="5030" transform="translate(-315 -3571)" fill="#FDFAFF"/>
<g id="Preview Profiles">
<g id="Anita">
<g id="Text + Icons">
<g id="Coffee Chat">
<g id="Group">
<path id="Vector (Stroke)" fill-rule="evenodd" clip-rule="evenodd" d="M6.38511 0.217168C6.55284 0.45085 6.49938 0.776261 6.2657 0.943993C6.0047 1.13133 5.79323 1.37939 5.64956 1.66674C5.50588 1.95409 5.43432 2.2721 5.44104 2.5933C5.4412 2.60057 5.4412 2.60784 5.44104 2.61511C5.43432 2.93631 5.50588 3.25432 5.64956 3.54167C5.79323 3.82903 6.0047 4.07708 6.2657 4.26442C6.49938 4.43215 6.55284 4.75756 6.38511 4.99124C6.21738 5.22493 5.89197 5.27839 5.65829 5.11066C5.25992 4.82472 4.93716 4.44611 4.71786 4.00752C4.50019 3.57218 4.39096 3.09075 4.3994 2.60421C4.39096 2.11767 4.50019 1.63623 4.71786 1.20089C4.93716 0.762301 5.25992 0.383688 5.65829 0.0977528C5.89197 -0.069979 6.21738 -0.0165151 6.38511 0.217168ZM10.5518 0.217168C10.7195 0.45085 10.666 0.776261 10.4324 0.943993C10.1714 1.13133 9.9599 1.37939 9.81622 1.66674C9.67255 1.95409 9.60098 2.2721 9.60771 2.5933C9.60786 2.60057 9.60786 2.60784 9.60771 2.61511C9.60098 2.93631 9.67255 3.25432 9.81622 3.54167C9.9599 3.82903 10.1714 4.07708 10.4324 4.26442C10.666 4.43215 10.7195 4.75756 10.5518 4.99124C10.384 5.22493 10.0586 5.27839 9.82495 5.11066C9.42659 4.82472 9.10382 4.44611 8.88453 4.00752C8.66686 3.57218 8.55763 3.09075 8.56607 2.60421C8.55763 2.11767 8.66686 1.63623 8.88453 1.20089C9.10382 0.762301 9.42659 0.383688 9.82495 0.0977528C10.0586 -0.069979 10.384 -0.0165151 10.5518 0.217168ZM11.6849 11.4583C10.288 11.4416 9.11307 11.8118 8.36399 12.3912C7.3852 13.1483 5.96466 13.5593 4.39949 13.5417C2.83433 13.5593 1.73325 13.2571 0.754469 12.5C0.526941 12.324 0.165693 11.8881 0.341684 11.6605C0.517675 11.433 0.844792 11.3912 1.07232 11.5672C1.8214 12.1466 2.99631 12.5168 4.39327 12.5001L4.40572 12.4999C5.80268 12.5166 6.97758 12.1466 7.72667 11.5672C8.70545 10.8101 10.126 10.3991 11.6912 10.4167C13.2563 10.3991 14.6769 10.8101 15.6557 11.5672C15.8589 11.9792 15.6559 12.0278 15.6559 12.2607C15.4799 12.4883 15.2459 12.5672 15.0183 12.3912C14.2692 11.8118 13.0943 11.4416 11.6974 11.4583H11.6849Z" fill="#3A3A3A"/>
<path id="Vector (Stroke)_2" fill-rule="evenodd" clip-rule="evenodd" d="M0.232422 7.85433C0.232422 7.56668 0.465607 7.3335 0.753255 7.3335H15.3366C15.6242 7.3335 15.8574 7.56668 15.8574 7.85433V13.0627C15.8574 14.8584 15.1441 16.5806 13.8743 17.8504C12.6045 19.1201 10.8823 19.8335 9.08659 19.8335H7.00325C5.20752 19.8335 3.48533 19.1201 2.21555 17.8504C0.945776 16.5806 0.232422 14.8584 0.232422 13.0627V7.85433ZM1.27409 8.37516V13.0627C1.27409 14.5821 1.8777 16.0394 2.95212 17.1138C4.02655 18.1882 5.48379 18.7918 7.00325 18.7918H9.08659C10.6061 18.7918 12.0633 18.1882 13.1377 17.1138C14.2121 16.0394 14.8158 14.5821 14.8158 13.0627V8.37516H1.27409Z" fill="#3A3A3A"/>
<path id="Vector" d="M15.0723 14.8605C15.5375 15.0741 16.048 15.1701 16.559 15.1401C17.07 15.1102 17.5658 14.9551 18.0029 14.6886C18.4399 14.4222 18.8048 14.0524 19.0655 13.6119C19.3262 13.1713 19.4746 12.6735 19.4978 12.1621C19.521 11.6508 19.4182 11.1415 19.1985 10.6792C18.9788 10.2169 18.6489 9.81559 18.2378 9.51063C17.8267 9.20567 17.3469 9.00637 16.8407 8.93025C16.3345 8.85413 15.8174 8.90353 15.3348 9.07409" stroke="#3A3A3A" stroke-linecap="round" stroke-linejoin="round"/>
</g>
<path id="Ellipse 77" d="M14.8128 12.0212C15.127 14 14.8128 18.8675 8.62695 18.9998C5.12695 19.4998 0.626953 16.9998 1.27347 13.5837C0.228453 11.5003 3.87487 14.6255 7.52109 12.5425C8.77179 10.8004 14.6926 11.2646 14.8128 12.0212Z" fill="#3A3A3A"/>
</g>
</g>
</g>
</g>
</g>
<defs>
<clipPath id="clip0_3684_5359">
<rect width="1280" height="5030" fill="white" transform="translate(-315 -3571)"/>
</clipPath>
</defs>
</svg>
