<svg width="20" height="21" viewBox="0 0 20 21" fill="none" xmlns="http://www.w3.org/2000/svg">
<g id="Coffee Chat">
<g id="Group">
<path id="Vector (Stroke)" fill-rule="evenodd" clip-rule="evenodd" d="M6.38414 0.685063C6.55187 0.918746 6.4984 1.24416 6.26472 1.41189C6.00372 1.59923 5.79226 1.84728 5.64858 2.13463C5.5049 2.42199 5.43334 2.73999 5.44007 3.06119C5.44022 3.06846 5.44022 3.07574 5.44007 3.08301C5.43334 3.40421 5.5049 3.72222 5.64858 4.00957C5.79226 4.29692 6.00372 4.54498 6.26472 4.73232C6.4984 4.90005 6.55187 5.22546 6.38414 5.45914C6.2164 5.69282 5.89099 5.74629 5.65731 5.57856C5.25895 5.29262 4.93618 4.91401 4.71689 4.47542C4.49922 4.04008 4.38999 3.55864 4.39842 3.0721C4.38999 2.58556 4.49922 2.10412 4.71689 1.66879C4.93618 1.2302 5.25895 0.851583 5.65731 0.565648C5.89099 0.397917 6.2164 0.45138 6.38414 0.685063ZM10.5508 0.685063C10.7185 0.918746 10.6651 1.24416 10.4314 1.41189C10.1704 1.59922 9.95892 1.84728 9.81525 2.13463C9.67157 2.42199 9.60001 2.74 9.60674 3.06119C9.60689 3.06846 9.60689 3.07574 9.60674 3.08301C9.60001 3.40421 9.67157 3.72222 9.81525 4.00957C9.95892 4.29692 10.1704 4.54498 10.4314 4.73232C10.6651 4.90005 10.7185 5.22546 10.5508 5.45914C10.3831 5.69282 10.0577 5.74629 9.82398 5.57856C9.42562 5.29262 9.10285 4.91401 8.88355 4.47542C8.66588 4.04008 8.55665 3.55864 8.56509 3.0721C8.55665 2.58556 8.66588 2.10412 8.88355 1.66879C9.10285 1.2302 9.42562 0.851583 9.82398 0.565648C10.0577 0.397917 10.3831 0.45138 10.5508 0.685063ZM11.684 11.9262C10.287 11.9095 9.11209 12.2797 8.36301 12.8591C7.38422 13.6162 5.96368 14.0272 4.39852 14.0096C2.83335 14.0272 1.73228 13.725 0.753492 12.9679C0.525965 12.7919 0.164717 12.356 0.340708 12.1284C0.516699 11.9009 0.843815 11.8591 1.07134 12.0351C1.82043 12.6145 2.99533 12.9847 4.39229 12.968L4.40474 12.9678C5.8017 12.9845 6.9766 12.6145 7.72569 12.0351C8.70447 11.278 10.125 10.867 11.6902 10.8846C13.2553 10.867 14.6759 11.278 15.6547 12.0351C15.8579 12.4471 15.6549 12.4957 15.6549 12.7286C15.4789 12.9562 15.2449 13.0351 15.0174 12.8591C14.2683 12.2797 13.0934 11.9095 11.6964 11.9262H11.684Z" fill="#3A3A3A"/>
<path id="Vector (Stroke)_2" fill-rule="evenodd" clip-rule="evenodd" d="M0.231445 8.32222C0.231445 8.03458 0.46463 7.80139 0.752279 7.80139H15.3356C15.6233 7.80139 15.8564 8.03458 15.8564 8.32222V13.5306C15.8564 15.3263 15.1431 17.0485 13.8733 18.3183C12.6035 19.588 10.8813 20.3014 9.08561 20.3014H7.00228C5.20654 20.3014 3.48435 19.588 2.21458 18.3183C0.944799 17.0485 0.231445 15.3263 0.231445 13.5306V8.32222ZM1.27311 8.84306V13.5306C1.27311 15.05 1.87672 16.5073 2.95115 17.5817C4.02557 18.6561 5.48281 19.2597 7.00228 19.2597H9.08561C10.6051 19.2597 12.0623 18.6561 13.1367 17.5817C14.2112 16.5073 14.8148 15.05 14.8148 13.5306V8.84306H1.27311Z" fill="#3A3A3A"/>
<path id="Vector" d="M15.071 15.3284C15.5363 15.542 16.0468 15.638 16.5578 15.608C17.0688 15.5781 17.5646 15.423 18.0017 15.1565C18.4387 14.8901 18.8036 14.5203 19.0643 14.0798C19.3249 13.6392 19.4734 13.1414 19.4966 12.63C19.5198 12.1187 19.417 11.6094 19.1973 11.1471C18.9776 10.6848 18.6477 10.2835 18.2366 9.97853C17.8254 9.67357 17.3457 9.47427 16.8395 9.39815C16.3333 9.32203 15.8162 9.37142 15.3335 9.54198" stroke="#3A3A3A" stroke-linecap="round" stroke-linejoin="round"/>
</g>
<path id="Ellipse 77" d="M14.8118 12.4891C15.126 14.4679 14.8118 19.3354 8.62598 19.4677C5.12598 19.9677 0.625977 17.4677 1.2725 14.0516C0.227476 11.9682 3.87389 15.0934 7.52012 13.0104C8.77082 11.2683 14.6916 11.7325 14.8118 12.4891Z" fill="#3A3A3A"/>
</g>
</svg>
