<svg width="72" height="72" viewBox="0 0 72 72" fill="none" xmlns="http://www.w3.org/2000/svg">
<g filter="url(#filter0_d_3374_585)">
<path d="M2 27.6C2 18.6392 2 14.1587 3.7439 10.7362C5.27787 7.72556 7.72556 5.27787 10.7362 3.7439C14.1587 2 18.6392 2 27.6 2H46.4C55.3608 2 59.8413 2 63.2638 3.7439C66.2744 5.27787 68.7221 7.72556 70.2561 10.7362C72 14.1587 72 18.6392 72 27.6V46.4C72 55.3608 72 59.8413 70.2561 63.2638C68.7221 66.2744 66.2744 68.7221 63.2638 70.2561C59.8413 72 55.3608 72 46.4 72H27.6C18.6392 72 14.1587 72 10.7362 70.2561C7.72556 68.7221 5.27787 66.2744 3.7439 63.2638C2 59.8413 2 55.3608 2 46.4V27.6Z" fill="black"/>
</g>
<path d="M24.7317 20C23.4773 20.0019 22.2749 20.501 21.3879 21.3879C20.501 22.2749 20.0019 23.4773 20 24.7317V49.2683C20.0019 50.5227 20.501 51.7251 21.3879 52.6121C22.2749 53.499 23.4773 53.9981 24.7317 54H49.2683C50.5227 53.9981 51.7251 53.499 52.6121 52.6121C53.499 51.7251 53.9981 50.5227 54 49.2683V24.7317C53.9745 22.125 51.8764 20 49.2683 20H24.7317ZM24.7317 22.1746H49.2683C50.6737 22.1746 51.8254 23.3263 51.8254 24.7331V49.2414C51.8254 50.6482 50.6737 51.7999 49.2669 51.7999H24.7331C24.055 51.7984 23.4051 51.5284 22.9256 51.0489C22.4461 50.5694 22.1761 49.9195 22.1746 49.2414V24.7331C22.1746 23.3263 23.3263 22.1746 24.7331 22.1746H24.7317ZM28.9533 28.8003C28.6039 28.8001 28.2579 28.8688 27.935 29.0025C27.6121 29.1361 27.3187 29.3321 27.0717 29.5792C26.8246 29.8262 26.6286 30.1196 26.495 30.4425C26.3613 30.7654 26.2926 31.1114 26.2928 31.4608V37.9336C26.2928 39.3927 27.497 40.5686 28.9548 40.5941H31.1534V41.08C31.1279 42.2842 30.438 42.9741 28.7748 42.9996H27.7265V45.1742H28.7748C31.8447 45.1742 33.5844 43.715 33.6354 41.0545V28.8003H28.9533ZM35.5026 28.8003V40.5686H37.9846V30.9508H40.3646V40.57H42.8466V30.9508H44.2774C44.7902 30.9508 45.2252 31.3602 45.2252 31.8972V40.5955H47.7072V31.4608C47.6817 30.0031 46.503 28.8003 45.0452 28.8003H35.5026ZM29.7226 30.9508H31.1534V38.4209H29.7226C29.5981 38.4215 29.4747 38.3974 29.3596 38.3501C29.2444 38.3027 29.1398 38.233 29.0517 38.1451C28.9636 38.0571 28.8938 37.9526 28.8462 37.8375C28.7987 37.7224 28.7745 37.5991 28.7748 37.4746V31.8958C28.7748 31.3857 29.1857 30.9494 29.7212 30.9494L29.7226 30.9508ZM35.5026 43.001V45.1756H47.6802V43.001H35.5026Z" fill="white"/>
<defs>
<filter id="filter0_d_3374_585" x="0" y="0" width="72" height="72" filterUnits="userSpaceOnUse" color-interpolation-filters="sRGB">
<feFlood flood-opacity="0" result="BackgroundImageFix"/>
<feColorMatrix in="SourceAlpha" type="matrix" values="0 0 0 0 0 0 0 0 0 0 0 0 0 0 0 0 0 0 127 0" result="hardAlpha"/>
<feOffset dx="-1" dy="-1"/>
<feGaussianBlur stdDeviation="0.5"/>
<feComposite in2="hardAlpha" operator="out"/>
<feColorMatrix type="matrix" values="0 0 0 0 1 0 0 0 0 1 0 0 0 0 1 0 0 0 0.1 0"/>
<feBlend mode="normal" in2="BackgroundImageFix" result="effect1_dropShadow_3374_585"/>
<feBlend mode="normal" in="SourceGraphic" in2="effect1_dropShadow_3374_585" result="shape"/>
</filter>
</defs>
</svg>
