<svg xmlns="http://www.w3.org/2000/svg" width="34" height="34" viewBox="0 0 34 34" fill="none">
  <path d="M4.73167 0C3.47733 0.00187355 2.2749 0.500989 1.38794 1.38794C0.500989 2.2749 0.00187355 3.47733 0 4.73167L0 29.2683C0.00187355 30.5227 0.500989 31.7251 1.38794 32.6121C2.2749 33.499 3.47733 33.9981 4.73167 34H29.2683C30.5227 33.9981 31.7251 33.499 32.6121 32.6121C33.499 31.7251 33.9981 30.5227 34 29.2683V4.73167C33.9745 2.125 31.8764 0 29.2683 0H4.73167ZM4.73167 2.17458H29.2683C30.6737 2.17458 31.8254 3.32633 31.8254 4.73308V29.2414C31.8254 30.6482 30.6737 31.7999 29.2669 31.7999H4.73308C4.05499 31.7984 3.40509 31.5284 2.9256 31.0489C2.44612 30.5694 2.17608 29.9195 2.17458 29.2414V4.73308C2.17458 3.32633 3.32633 2.17458 4.73308 2.17458H4.73167ZM8.95333 8.80033C8.6039 8.80015 8.25785 8.86884 7.93498 9.00247C7.61211 9.13611 7.31875 9.33207 7.07166 9.57916C6.82457 9.82625 6.62861 10.1196 6.49497 10.4425C6.36134 10.7654 6.29265 11.1114 6.29283 11.4608V17.9336C6.29283 19.3927 7.497 20.5686 8.95475 20.5941H11.1534V21.08C11.1279 22.2842 10.438 22.9741 8.77483 22.9996H7.7265V25.1742H8.77483C11.8447 25.1742 13.5844 23.715 13.6354 21.0545V8.80033H8.95333ZM15.5026 8.80033V20.5686H17.9846V10.9508H20.3646V20.57H22.8466V10.9508H24.2774C24.7902 10.9508 25.2252 11.3602 25.2252 11.8972V20.5955H27.7072V11.4608C27.6817 10.0031 26.503 8.80033 25.0452 8.80033H15.5026ZM9.72258 10.9508H11.1534V18.4209H9.72258C9.59808 18.4215 9.47471 18.3974 9.35956 18.3501C9.24441 18.3027 9.13977 18.233 9.05167 18.1451C8.96357 18.0571 8.89375 17.9526 8.84624 17.8375C8.79873 17.7224 8.77446 17.5991 8.77483 17.4746V11.8958C8.77483 11.3857 9.18567 10.9494 9.72117 10.9494L9.72258 10.9508ZM15.5026 23.001V25.1756H27.6802V23.001H15.5026Z" fill="black"/>
</svg>