<svg xmlns="http://www.w3.org/2000/svg" viewBox="0 0 24 24" fill="currentColor">
  <path fill-rule="evenodd" clip-rule="evenodd" d="M5.06406 1.19632C2.92796 1.19632 1.19632 2.92796 1.19632 5.06406V9.93594C1.19632 12.072 2.92796 13.8037 5.06406 13.8037H9.93594C12.072 13.8037 13.8037 12.072 13.8037 9.93594V5.06406C13.8037 2.92796 12.072 1.19632 9.93594 1.19632H5.06406ZM0 5.06406C0 2.26726 2.26726 0 5.06406 0H9.93594C12.7327 0 15 2.26726 15 5.06406V9.93594C15 12.7327 12.7327 15 9.93594 15H5.06406C2.26726 15 0 12.7327 0 9.93594V5.06406Z" fill="#3A3A3A"/>
  <path fill-rule="evenodd" clip-rule="evenodd" d="M7.50273 5.16995C6.21599 5.16995 5.17288 6.21306 5.17288 7.4998C5.17288 8.78653 6.21599 9.82964 7.50273 9.82964C8.78946 9.82964 9.83257 8.78653 9.83257 7.4998C9.83257 6.21306 8.78946 5.16995 7.50273 5.16995ZM3.97656 7.4998C3.97656 5.55235 5.55528 3.97363 7.50273 3.97363C9.45017 3.97363 11.0289 5.55235 11.0289 7.4998C11.0289 9.44724 9.45017 11.026 7.50273 11.026C5.55528 11.026 3.97656 9.44724 3.97656 7.4998Z" fill="#3A3A3A"/>
  <path d="M11.477 4.36213C11.9389 4.36213 12.3133 3.98769 12.3133 3.52579C12.3133 3.0639 11.9389 2.68945 11.477 2.68945C11.0151 2.68945 10.6406 3.0639 10.6406 3.52579C10.6406 3.98769 11.0151 4.36213 11.477 4.36213Z" fill="#3A3A3A"/>
</svg>