<svg xmlns="http://www.w3.org/2000/svg" viewBox="0 0 15 15" fill="none">
  <path d="M6.707 2.29303C6.51947 2.10556 6.26516 2.00024 6 2.00024C5.73484 2.00024 5.48053 2.10556 5.293 2.29303L0.793 6.79303C0.605529 6.98056 0.500214 7.23487 0.500214 7.50003C0.500214 7.76519 0.605529 8.0195 0.793 8.20703L5.293 12.707C5.4816 12.8892 5.7342 12.99 5.9964 12.9877C6.2586 12.9854 6.50941 12.8803 6.69482 12.6948C6.88023 12.5094 6.9854 12.2586 6.98767 11.9964C6.98995 11.7342 6.88916 11.4816 6.707 11.293L4 8.50003H13.5C13.7652 8.50003 14.0196 8.39467 14.2071 8.20714C14.3946 8.0196 14.5 7.76525 14.5 7.50003C14.5 7.23481 14.3946 6.98046 14.2071 6.79292C14.0196 6.60539 13.7652 6.50003 13.5 6.50003H4L6.707 3.70703C6.89447 3.5195 6.99979 3.26519 6.99979 3.00003C6.99979 2.73487 6.89447 2.48056 6.707 2.29303Z" fill="url(#paint0_linear_3963_3708)"/>
  <defs>
    <linearGradient id="paint0_linear_3963_3708" x1="14.5" y1="13" x2="0.5" y2="13" gradientUnits="userSpaceOnUse">
      <stop stop-color="#765DF2"/>
      <stop offset="1" stop-color="#E06287"/>
    </linearGradient>
  </defs>
</svg>