<svg xmlns="http://www.w3.org/2000/svg" viewBox="0 0 24 24" fill="currentColor">
  <g clip-path="url(#clip0_3935_64)">
    <path d="M15.5906 15.6631H12.3402C12.1102 15.6631 11.9244 15.4773 11.9244 15.2474V10.0127C11.9244 8.21747 10.9984 8.21747 10.6929 8.21747C9.87087 8.21747 9.52127 8.86629 9.40788 9.14662C9.35433 9.27262 9.32912 9.48678 9.32912 9.78601V15.2506C9.32912 15.4805 9.14331 15.6663 8.91341 15.6663H5.65986C5.54963 15.6663 5.44253 15.6222 5.3638 15.5435C5.28506 15.4648 5.24097 15.3576 5.24411 15.2474C5.24411 15.1592 5.2882 6.38128 5.24411 5.48364C5.23781 5.37025 5.27875 5.26001 5.3575 5.17812C5.43625 5.09623 5.54333 5.04898 5.65984 5.04898H8.91341C9.14331 5.04898 9.32914 5.23479 9.32914 5.46472V5.71039C9.87717 5.2222 10.6677 4.81904 11.8457 4.81904C14.4504 4.81904 16.0063 6.62061 16.0063 9.63793V15.2474C16.0063 15.4773 15.8205 15.6631 15.5906 15.6631ZM12.7559 14.8317L15.178 14.8316V9.63789C15.178 7.10245 13.9654 5.6505 11.8488 5.6505C10.4347 5.6505 9.74805 6.35601 9.31655 7.00168C9.26616 7.17176 9.10552 7.29776 8.91655 7.29776H8.89452C8.74331 7.29776 8.60473 7.21586 8.53231 7.08359C8.47562 6.97964 8.46302 6.85995 8.50081 6.74971V5.87729H6.08506C6.10711 7.61273 6.08506 13.2285 6.07877 14.8285H8.49766V9.78281C8.49766 9.36392 8.54175 9.06156 8.63623 8.83164C9.00159 7.9277 9.77008 7.38282 10.6898 7.38282C12 7.38282 12.7527 8.34032 12.7527 10.0096V14.8316H12.7559L12.7559 14.8317ZM3.86144 15.6631H0.607891C0.377969 15.6631 0.192156 15.4772 0.192156 15.2473V5.46468C0.192156 5.23476 0.377969 5.04893 0.607891 5.04893H3.86144C4.09136 5.04893 4.27717 5.23476 4.27717 5.46467V15.2473C4.27717 15.4773 4.09136 15.6631 3.86144 15.6631V15.6631ZM1.02366 14.8316H3.44569V5.8804H1.02367L1.02366 14.8316ZM2.23623 4.54498L2.21417 4.54496C0.932281 4.54496 0 3.65678 0 2.43473C0 1.21584 0.948031 0.327637 2.25827 0.327637C3.54645 0.327637 4.46616 1.19062 4.49136 2.42528C4.49136 3.65678 3.54333 4.54498 2.23623 4.54498ZM2.25827 1.16229C1.40472 1.16229 0.8315 1.67568 0.8315 2.4379C0.8315 3.1875 1.39844 3.71348 2.21419 3.71348H2.23622C3.08663 3.71348 3.65984 3.20009 3.65984 2.43789C3.64409 1.66623 3.09292 1.16229 2.25827 1.16229Z" fill="currentColor"/>
  </g>
  <defs>
    <clipPath id="clip0_3935_64">
      <rect width="16" height="16" fill="currentColor"/>
    </clipPath>
  </defs>
</svg>