<svg xmlns="http://www.w3.org/2000/svg" viewBox="0 0 24 24" fill="currentColor">
  <path fill-rule="evenodd" clip-rule="evenodd" d="M0.595431 0.647579C0.982048 0.23811 1.51526 0 2.08033 0H17.9197C18.4847 0 19.018 0.23811 19.4046 0.647579C19.7899 1.0557 20 1.6012 20 2.16231V12.8377C20 13.3988 19.7899 13.9443 19.4046 14.3524C19.018 14.7619 18.4847 15 17.9197 15H2.08033C1.51526 15 0.982047 14.7619 0.595431 14.3524C0.210086 13.9443 0 13.3988 0 12.8377V2.16231C0 1.6012 0.210086 1.0557 0.595431 0.647579ZM2.08033 1.27451C1.88162 1.27451 1.68232 1.35775 1.52885 1.52029C1.43691 1.61767 1.36664 1.7385 1.32476 1.87254L9.56042 7.91106C9.69366 8.0087 9.84698 8.05787 10 8.05787C10.153 8.05787 10.3063 8.0087 10.4396 7.91106L18.6752 1.87254C18.6334 1.73851 18.5631 1.61767 18.4711 1.52029C18.3177 1.35775 18.1184 1.27451 17.9197 1.27451H2.08033ZM18.7192 3.42342L11.1992 8.93721L11.1991 8.93731C10.8508 9.19253 10.4325 9.33238 10 9.33238C9.56749 9.33238 9.14919 9.19253 8.80093 8.93731L8.8008 8.93721L1.28079 3.42342V12.8377C1.28079 13.0855 1.37412 13.3158 1.52885 13.4797C1.68232 13.6423 1.88162 13.7255 2.08033 13.7255H17.9197C18.1184 13.7255 18.3177 13.6423 18.4711 13.4797C18.6259 13.3158 18.7192 13.0855 18.7192 12.8377V3.42342Z" fill="#3A3A3A"/>
</svg>