<svg width="72" height="72" viewBox="0 0 72 72" fill="none" xmlns="http://www.w3.org/2000/svg">
<g filter="url(#filter0_d_3374_579)">
<path d="M2 27.6C2 18.6392 2 14.1587 3.7439 10.7362C5.27787 7.72556 7.72556 5.27787 10.7362 3.7439C14.1587 2 18.6392 2 27.6 2H46.4C55.3608 2 59.8413 2 63.2638 3.7439C66.2744 5.27787 68.7221 7.72556 70.2561 10.7362C72 14.1587 72 18.6392 72 27.6V46.4C72 55.3608 72 59.8413 70.2561 63.2638C68.7221 66.2744 66.2744 68.7221 63.2638 70.2561C59.8413 72 55.3608 72 46.4 72H27.6C18.6392 72 14.1587 72 10.7362 70.2561C7.72556 68.7221 5.27787 66.2744 3.7439 63.2638C2 59.8413 2 55.3608 2 46.4V27.6Z" fill="black"/>
</g>
<path d="M22.6724 40.0826C22.6724 41.3974 22.9574 42.4068 23.3298 43.0175C23.8182 43.8174 24.5464 44.1562 25.2889 44.1562C26.2466 44.1562 27.1228 43.9154 28.8111 41.5506C30.1638 39.6552 31.7577 36.9944 32.83 35.3265L34.6462 32.5006C35.9078 30.538 37.368 28.3564 39.0423 26.8775C40.4088 25.6705 41.8833 25 43.3671 25C45.8584 25 48.2314 26.462 50.0476 29.2042C52.0351 32.2072 53 35.9898 53 39.8934C53 42.214 52.5484 43.919 51.7799 45.2662C51.0373 46.569 49.59 47.8706 47.1556 47.8706V44.1562C49.2401 44.1562 49.7603 42.2164 49.7603 39.9964C49.7603 36.8329 49.032 33.322 47.4276 30.8135C46.2889 29.034 44.8133 27.9468 43.1899 27.9468C41.4342 27.9468 40.0212 29.2878 38.4333 31.6793C37.5891 32.9497 36.7224 34.4979 35.7494 36.2448L34.6781 38.1668C32.5262 42.0308 31.9811 42.9108 30.9052 44.3633C29.0192 46.9068 27.409 47.8706 25.2889 47.8706C22.7741 47.8706 21.1837 46.7677 20.1989 45.1058C19.3949 43.7515 19 41.9745 19 39.9497L22.6724 40.0826Z" fill="#0081FB"/>
<path d="M21.8945 29.4663C23.5783 26.8381 26.008 25 28.7948 25C30.4089 25 32.0133 25.4838 33.6887 26.8692C35.5212 28.3838 37.4745 30.878 39.9113 34.9889L40.7852 36.464C42.8944 40.0228 44.0945 41.8535 44.7969 42.717C45.7002 43.8257 46.3328 44.1562 47.1545 44.1562C49.239 44.1562 49.7593 42.2164 49.7593 39.9964L52.999 39.8934C52.999 42.214 52.5474 43.919 51.7788 45.2662C51.0363 46.569 49.589 47.8706 47.1545 47.8706C45.6411 47.8706 44.3004 47.5377 42.8177 46.1211C41.6779 45.0339 40.3454 43.1025 39.3202 41.3662L36.2708 36.2077C34.741 33.6189 33.3374 31.6888 32.5252 30.8146C31.6516 29.8747 30.5283 28.7395 28.7358 28.7395C27.2851 28.7395 26.053 29.7705 25.022 31.3475L21.8945 29.4663Z" fill="url(#paint0_linear_3374_579)"/>
<path d="M28.7367 28.7395C27.286 28.7395 26.0539 29.7706 25.0229 31.3475C23.5652 33.5759 22.6724 36.895 22.6724 40.0826C22.6724 41.3974 22.9574 42.4068 23.3298 43.0175L20.1989 45.1058C19.3949 43.7515 19 41.9745 19 39.9497C19 36.2676 19.998 32.4299 21.8956 29.4663C23.5794 26.8381 26.009 25 28.7959 25L28.7367 28.7395Z" fill="url(#paint1_linear_3374_579)"/>
<defs>
<filter id="filter0_d_3374_579" x="0" y="0" width="72" height="72" filterUnits="userSpaceOnUse" color-interpolation-filters="sRGB">
<feFlood flood-opacity="0" result="BackgroundImageFix"/>
<feColorMatrix in="SourceAlpha" type="matrix" values="0 0 0 0 0 0 0 0 0 0 0 0 0 0 0 0 0 0 127 0" result="hardAlpha"/>
<feOffset dx="-1" dy="-1"/>
<feGaussianBlur stdDeviation="0.5"/>
<feComposite in2="hardAlpha" operator="out"/>
<feColorMatrix type="matrix" values="0 0 0 0 1 0 0 0 0 1 0 0 0 0 1 0 0 0 0.1 0"/>
<feBlend mode="normal" in2="BackgroundImageFix" result="effect1_dropShadow_3374_579"/>
<feBlend mode="normal" in="SourceGraphic" in2="effect1_dropShadow_3374_579" result="shape"/>
</filter>
<linearGradient id="paint0_linear_3374_579" x1="453.562" y1="1304.24" x2="2792" y2="1420.87" gradientUnits="userSpaceOnUse">
<stop stop-color="#0064E1"/>
<stop offset="0.4" stop-color="#0064E1"/>
<stop offset="0.83" stop-color="#0073EE"/>
<stop offset="1" stop-color="#0082FB"/>
</linearGradient>
<linearGradient id="paint1_linear_3374_579" x1="551.062" y1="1689.4" x2="551.062" y2="815.297" gradientUnits="userSpaceOnUse">
<stop stop-color="#0082FB"/>
<stop offset="1" stop-color="#0064E0"/>
</linearGradient>
</defs>
</svg>
