<svg xmlns="http://www.w3.org/2000/svg" width="34" height="23" viewBox="0 0 34 23" fill="none">
  <path d="M3.6724 15.0826C3.6724 16.3974 3.95741 17.4068 4.32982 18.0175C4.81817 18.8174 5.54638 19.1562 6.28894 19.1562C7.24665 19.1562 8.12281 18.9154 9.81112 16.5506C11.1638 14.6552 12.7577 11.9944 13.83 10.3265L15.6462 7.50056C16.9078 5.53802 18.368 3.35639 20.0423 1.87753C21.4088 0.670497 22.8833 0 24.3671 0C26.8584 0 29.2314 1.46205 31.0476 4.20416C33.0351 7.2072 34 10.9898 34 14.8934C34 17.214 33.5484 18.919 32.7799 20.2662C32.0373 21.569 30.59 22.8706 28.1556 22.8706V19.1562C30.2401 19.1562 30.7603 17.2164 30.7603 14.9964C30.7603 11.8329 30.032 8.32196 28.4276 5.81349C27.2889 4.03401 25.8133 2.94682 24.1899 2.94682C22.4342 2.94682 21.0212 4.28782 19.4333 6.67928C18.5891 7.94966 17.7224 9.49792 16.7494 11.2448L15.6781 13.1668C13.5262 17.0308 12.9811 17.9108 11.9052 19.3633C10.0192 21.9068 8.40902 22.8706 6.28894 22.8706C3.77413 22.8706 2.1837 21.7677 1.1989 20.1058C0.394852 18.7515 0 16.9745 0 14.9497L3.6724 15.0826Z" fill="#0081FB"/>
  <path d="M2.89453 4.4663C4.57833 1.83812 7.008 0 9.79481 0C11.4089 0 13.0133 0.483807 14.6887 1.86919C16.5212 3.38382 18.4745 5.87805 20.9113 9.98886L21.7852 11.464C23.8944 15.0228 25.0945 16.8535 25.7969 17.717C26.7002 18.8257 27.3328 19.1562 28.1545 19.1562C30.239 19.1562 30.7593 17.2164 30.7593 14.9964L33.999 14.8934C33.999 17.214 33.5474 18.919 32.7788 20.2662C32.0363 21.569 30.589 22.8706 28.1545 22.8706C26.6411 22.8706 25.3004 22.5377 23.8177 21.1211C22.6779 20.0339 21.3454 18.1025 20.3202 16.3662L17.2708 11.2077C15.741 8.61895 14.3374 6.68883 13.5252 5.81456C12.6516 4.87465 11.5283 3.73945 9.73584 3.73945C8.28513 3.73945 7.05302 4.77055 6.022 6.34746L2.89453 4.4663Z" fill="url(#paint0_linear_3374_314)"/>
  <path d="M9.73675 3.73945C8.28604 3.73945 7.05394 4.77055 6.02291 6.34746C4.56516 8.57591 3.6724 11.895 3.6724 15.0826C3.6724 16.3974 3.95741 17.4068 4.32982 18.0175L1.1989 20.1058C0.394852 18.7515 0 16.9745 0 14.9497C0 11.2676 0.997953 7.42994 2.89558 4.4663C4.57938 1.83812 7.00905 0 9.79585 0L9.73675 3.73945Z" fill="url(#paint1_linear_3374_314)"/>
  <defs>
    <linearGradient id="paint0_linear_3374_314" x1="434.562" y1="1279.24" x2="2773" y2="1395.87" gradientUnits="userSpaceOnUse">
      <stop stop-color="#0064E1"/>
      <stop offset="0.4" stop-color="#0064E1"/>
      <stop offset="0.83" stop-color="#0073EE"/>
      <stop offset="1" stop-color="#0082FB"/>
    </linearGradient>
    <linearGradient id="paint1_linear_3374_314" x1="532.062" y1="1664.4" x2="532.062" y2="790.297" gradientUnits="userSpaceOnUse">
      <stop stop-color="#0082FB"/>
      <stop offset="1" stop-color="#0064E0"/>
    </linearGradient>
  </defs>
</svg>