<svg width="72" height="72" viewBox="0 0 72 72" fill="none" xmlns="http://www.w3.org/2000/svg">
<g filter="url(#filter0_d_3374_581)">
<path d="M2 27.6C2 18.6392 2 14.1587 3.7439 10.7362C5.27787 7.72556 7.72556 5.27787 10.7362 3.7439C14.1587 2 18.6392 2 27.6 2H46.4C55.3608 2 59.8413 2 63.2638 3.7439C66.2744 5.27787 68.7221 7.72556 70.2561 10.7362C72 14.1587 72 18.6392 72 27.6V46.4C72 55.3608 72 59.8413 70.2561 63.2638C68.7221 66.2744 66.2744 68.7221 63.2638 70.2561C59.8413 72 55.3608 72 46.4 72H27.6C18.6392 72 14.1587 72 10.7362 70.2561C7.72556 68.7221 5.27787 66.2744 3.7439 63.2638C2 59.8413 2 55.3608 2 46.4V27.6Z" fill="black"/>
</g>
<path d="M36.1588 36.1588H20V20H36.1588V36.1588Z" fill="#F1511B"/>
<path d="M53.9985 36.1588H37.8398V20H53.9985V36.1588Z" fill="#80CC28"/>
<path d="M36.1584 54.0001H20V37.8413H36.1584V54.0001Z" fill="#00ADEF"/>
<path d="M53.9985 54.0001H37.8398V37.8413H53.9985V54.0001Z" fill="#FBBC09"/>
<defs>
<filter id="filter0_d_3374_581" x="0" y="0" width="72" height="72" filterUnits="userSpaceOnUse" color-interpolation-filters="sRGB">
<feFlood flood-opacity="0" result="BackgroundImageFix"/>
<feColorMatrix in="SourceAlpha" type="matrix" values="0 0 0 0 0 0 0 0 0 0 0 0 0 0 0 0 0 0 127 0" result="hardAlpha"/>
<feOffset dx="-1" dy="-1"/>
<feGaussianBlur stdDeviation="0.5"/>
<feComposite in2="hardAlpha" operator="out"/>
<feColorMatrix type="matrix" values="0 0 0 0 1 0 0 0 0 1 0 0 0 0 1 0 0 0 0.1 0"/>
<feBlend mode="normal" in2="BackgroundImageFix" result="effect1_dropShadow_3374_581"/>
<feBlend mode="normal" in="SourceGraphic" in2="effect1_dropShadow_3374_581" result="shape"/>
</filter>
</defs>
</svg>
