<svg xmlns="http://www.w3.org/2000/svg" width="43" height="43" viewBox="0 0 43 43" fill="none">
  <path fill-rule="evenodd" clip-rule="evenodd" d="M38.2225 9.1717C32.3135 6.55587 26.5408 5.72454 21.499 5.76395C16.4555 5.72454 10.681 6.55587 4.77383 9.1717C4.06971 7.87454 3.78125 7.08979 3.78125 7.08979C10.2402 4.49366 16.2889 3.605 21.499 3.5835C26.7092 3.605 32.7579 4.49366 39.2168 7.08979C39.2168 7.08979 39.0126 7.72762 38.2225 9.1717ZM26.4602 11.1031L21.499 39.4168L16.5003 11.0977C11.8079 11.1013 10.319 11.6281 10.104 13.7763C10.104 13.7763 6.93279 12.5759 5.33462 10.1392C11.5732 7.20087 17.8405 7.07008 17.8405 7.07008L21.499 11.5887L25.1523 7.07008C25.1523 7.07008 31.4195 7.20266 37.6581 10.1392C36.0599 12.5759 32.8905 13.7763 32.8905 13.7763C32.6755 11.6281 31.1848 11.1031 26.4584 11.1031" fill="#E51737"/>
</svg>