<svg xmlns="http://www.w3.org/2000/svg" width="40" height="40" viewBox="0 0 40 40" fill="none">
  <path d="M4.9787 21.1986V14.3952H3.33203V21.2836C3.33203 23.8719 5.15036 25.5836 7.5037 25.5836C8.6587 25.5836 9.66537 25.1336 10.4137 24.3652V25.3919H12.0404V14.3952H10.392V21.1986C10.392 22.9536 9.21536 24.1286 7.69703 24.1286C6.15536 24.1086 4.98036 22.9736 4.98036 21.1986M13.6654 25.4136H15.227V24.4069C15.9554 25.1569 16.982 25.6069 18.0937 25.6069C18.647 25.612 19.1959 25.5071 19.7083 25.2983C20.2208 25.0896 20.6867 24.7811 21.079 24.3909C21.4713 24.0006 21.7821 23.5363 21.9935 23.0249C22.2049 22.5135 22.3126 21.9652 22.3104 21.4119C22.3124 20.8587 22.2045 20.3106 21.993 19.7994C21.7815 19.2882 21.4706 18.8241 21.0784 18.434C20.6861 18.0439 20.2203 17.7356 19.7079 17.5269C19.1956 17.3183 18.6469 17.2135 18.0937 17.2186C16.982 17.2186 15.977 17.6686 15.2487 18.4186V14.3936H13.6654V25.4136ZM15.227 21.4136C15.227 20.6816 15.5178 19.9795 16.0354 19.4619C16.553 18.9443 17.255 18.6536 17.987 18.6536C18.719 18.6536 19.421 18.9443 19.9386 19.4619C20.4562 19.9795 20.747 20.6816 20.747 21.4136C20.747 22.9519 19.507 24.1936 17.987 24.1936C17.6227 24.1938 17.2619 24.1218 16.9255 23.9819C16.5892 23.8419 16.2838 23.6367 16.0272 23.378C15.7706 23.1194 15.5678 22.8125 15.4304 22.475C15.2931 22.1375 15.2239 21.7779 15.227 21.4136ZM23.2504 21.3886C23.2504 23.7852 25.112 25.5836 27.5087 25.5836C28.9637 25.5836 30.162 24.9402 30.9754 23.8702L29.8187 23.0152C29.2187 23.8069 28.4287 24.1919 27.5087 24.1919C26.1604 24.1919 25.0687 23.2086 24.8554 21.9036H31.3804V21.3886C31.3804 18.9936 29.6904 17.2169 27.3804 17.2169C25.027 17.2169 23.2504 19.1219 23.2504 21.3886ZM27.337 18.6086C28.5137 18.6086 29.4987 19.4202 29.7754 20.6619H24.8754C25.1754 19.4202 26.1604 18.6086 27.337 18.6086ZM36.6654 18.8002V17.3236H36.1087C35.232 17.3236 34.5904 17.7302 34.1837 18.3736V17.3886H32.6437V25.4119H34.227V20.8336C34.227 19.5919 34.9754 18.7786 36.0237 18.7786H36.6654V18.8002Z" fill="white"/>
</svg>