<svg xmlns="http://www.w3.org/2000/svg" width="40" height="40" viewBox="0 0 40 40" fill="none">
  <path d="M4.97998 21.1983V14.395H3.33331V21.2833C3.33331 23.8716 5.15165 25.5833 7.50498 25.5833C8.65998 25.5833 9.66665 25.1333 10.415 24.365V25.3916H12.0416V14.395H10.3933V21.1983C10.3933 22.9533 9.21665 24.1283 7.69831 24.1283C6.15665 24.1083 4.98165 22.9733 4.98165 21.1983M13.6666 25.4133H15.2283V24.4066C15.9566 25.1566 16.9833 25.6066 18.095 25.6066C18.6483 25.6117 19.1971 25.5068 19.7096 25.2981C20.2221 25.0893 20.688 24.7809 21.0803 24.3906C21.4725 24.0003 21.7834 23.536 21.9948 23.0247C22.2062 22.5133 22.3139 21.965 22.3116 21.4116C22.3137 20.8584 22.2058 20.3103 21.9943 19.7991C21.7828 19.288 21.4719 18.8238 21.0797 18.4338C20.6874 18.0437 20.2216 17.7353 19.7092 17.5267C19.1969 17.3181 18.6482 17.2132 18.095 17.2183C16.9833 17.2183 15.9783 17.6683 15.25 18.4183V14.3933H13.6666V25.4133ZM15.2283 21.4133C15.2283 20.6813 15.5191 19.9793 16.0367 19.4617C16.5543 18.9441 17.2563 18.6533 17.9883 18.6533C18.7203 18.6533 19.4223 18.9441 19.9399 19.4617C20.4575 19.9793 20.7483 20.6813 20.7483 21.4133C20.7483 22.9516 19.5083 24.1933 17.9883 24.1933C17.624 24.1935 17.2632 24.1216 16.9268 23.9816C16.5904 23.8416 16.2851 23.6364 16.0285 23.3778C15.7719 23.1191 15.569 22.8122 15.4317 22.4748C15.2944 22.1373 15.2252 21.7776 15.2283 21.4133ZM23.2516 21.3883C23.2516 23.785 25.1133 25.5833 27.51 25.5833C28.965 25.5833 30.1633 24.94 30.9766 23.87L29.82 23.015C29.22 23.8066 28.43 24.1916 27.51 24.1916C26.1616 24.1916 25.07 23.2083 24.8566 21.9033H31.3816V21.3883C31.3816 18.9933 29.6916 17.2166 27.3816 17.2166C25.0283 17.2166 23.2516 19.1216 23.2516 21.3883ZM27.3383 18.6083C28.515 18.6083 29.5 19.42 29.7766 20.6616H24.8766C25.1766 19.42 26.1616 18.6083 27.3383 18.6083ZM36.6666 18.8V17.3233H36.11C35.2333 17.3233 34.5916 17.73 34.185 18.3733V17.3883H32.645V25.4116H34.2283V20.8333C34.2283 19.5916 34.9766 18.7783 36.025 18.7783H36.6666V18.8Z" fill="black"/>
</svg>