<svg width="72" height="72" viewBox="0 0 72 72" fill="none" xmlns="http://www.w3.org/2000/svg">
<g filter="url(#filter0_d_3374_583)">
<path d="M2 27.6C2 18.6392 2 14.1587 3.7439 10.7362C5.27787 7.72556 7.72556 5.27787 10.7362 3.7439C14.1587 2 18.6392 2 27.6 2H46.4C55.3608 2 59.8413 2 63.2638 3.7439C66.2744 5.27787 68.7221 7.72556 70.2561 10.7362C72 14.1587 72 18.6392 72 27.6V46.4C72 55.3608 72 59.8413 70.2561 63.2638C68.7221 66.2744 66.2744 68.7221 63.2638 70.2561C59.8413 72 55.3608 72 46.4 72H27.6C18.6392 72 14.1587 72 10.7362 70.2561C7.72556 68.7221 5.27787 66.2744 3.7439 63.2638C2 59.8413 2 55.3608 2 46.4V27.6Z" fill="black"/>
</g>
<path d="M21.9787 38.1986V31.3952H20.332V38.2836C20.332 40.8719 22.1504 42.5836 24.5037 42.5836C25.6587 42.5836 26.6654 42.1336 27.4137 41.3652V42.3919H29.0404V31.3952H27.392V38.1986C27.392 39.9536 26.2154 41.1286 24.697 41.1286C23.1554 41.1086 21.9804 39.9736 21.9804 38.1986M30.6654 42.4136H32.227V41.4069C32.9554 42.1569 33.982 42.6069 35.0937 42.6069C35.647 42.612 36.1959 42.5071 36.7083 42.2983C37.2208 42.0896 37.6867 41.7811 38.079 41.3909C38.4713 41.0006 38.7821 40.5363 38.9935 40.0249C39.2049 39.5135 39.3126 38.9652 39.3104 38.4119C39.3124 37.8587 39.2045 37.3106 38.993 36.7994C38.7815 36.2882 38.4706 35.8241 38.0784 35.434C37.6861 35.0439 37.2203 34.7356 36.7079 34.5269C36.1956 34.3183 35.6469 34.2135 35.0937 34.2186C33.982 34.2186 32.977 34.6686 32.2487 35.4186V31.3936H30.6654V42.4136ZM32.227 38.4136C32.227 37.6816 32.5178 36.9795 33.0354 36.4619C33.553 35.9443 34.255 35.6536 34.987 35.6536C35.719 35.6536 36.421 35.9443 36.9386 36.4619C37.4562 36.9795 37.747 37.6816 37.747 38.4136C37.747 39.9519 36.507 41.1936 34.987 41.1936C34.6227 41.1938 34.2619 41.1218 33.9255 40.9819C33.5892 40.8419 33.2838 40.6367 33.0272 40.378C32.7706 40.1194 32.5678 39.8125 32.4304 39.475C32.2931 39.1375 32.2239 38.7779 32.227 38.4136ZM40.2504 38.3886C40.2504 40.7852 42.112 42.5836 44.5087 42.5836C45.9637 42.5836 47.162 41.9402 47.9754 40.8702L46.8187 40.0152C46.2187 40.8069 45.4287 41.1919 44.5087 41.1919C43.1604 41.1919 42.0687 40.2086 41.8554 38.9036H48.3804V38.3886C48.3804 35.9936 46.6904 34.2169 44.3804 34.2169C42.027 34.2169 40.2504 36.1219 40.2504 38.3886ZM44.337 35.6086C45.5137 35.6086 46.4987 36.4202 46.7754 37.6619H41.8754C42.1754 36.4202 43.1604 35.6086 44.337 35.6086ZM53.6654 35.8002V34.3236H53.1087C52.232 34.3236 51.5904 34.7302 51.1837 35.3736V34.3886H49.6437V42.4119H51.227V37.8336C51.227 36.5919 51.9754 35.7786 53.0237 35.7786H53.6654V35.8002Z" fill="white"/>
<defs>
<filter id="filter0_d_3374_583" x="0" y="0" width="72" height="72" filterUnits="userSpaceOnUse" color-interpolation-filters="sRGB">
<feFlood flood-opacity="0" result="BackgroundImageFix"/>
<feColorMatrix in="SourceAlpha" type="matrix" values="0 0 0 0 0 0 0 0 0 0 0 0 0 0 0 0 0 0 127 0" result="hardAlpha"/>
<feOffset dx="-1" dy="-1"/>
<feGaussianBlur stdDeviation="0.5"/>
<feComposite in2="hardAlpha" operator="out"/>
<feColorMatrix type="matrix" values="0 0 0 0 1 0 0 0 0 1 0 0 0 0 1 0 0 0 0.1 0"/>
<feBlend mode="normal" in2="BackgroundImageFix" result="effect1_dropShadow_3374_583"/>
<feBlend mode="normal" in="SourceGraphic" in2="effect1_dropShadow_3374_583" result="shape"/>
</filter>
</defs>
</svg>
