<svg xmlns="http://www.w3.org/2000/svg" viewBox="0 0 27 42" fill="none">
  <path d="M11.8379 29.8608C11.8214 33.6965 11.8054 37.5325 11.7898 41.3687C11.7841 41.4208 11.7717 41.4718 11.7531 41.5208C11.6378 41.8227 11.2772 42.0183 10.9612 41.9986C10.8381 41.9901 10.7191 41.9514 10.6147 41.886L9.54499 41.2596L1.83476 36.8285L0.649766 36.1486C0.539917 36.0711 0.442632 35.9774 0.361295 35.8706C0.175345 35.6257 0.129388 35.3779 0.078481 35.0964C0.0180645 34.8174 0.0051583 34.5302 0.0403011 34.2469C0.10252 33.6233 0.0770669 29.3203 0 22.9677L0.907127 23.5132L2.26252 24.2923L5.75457 26.3685L11.5777 29.7123L11.8379 29.8608Z" fill="#3A3A3A"/>
  <path d="M11.7743 15.078L10.6381 15.7311L10.2089 15.976L8.74537 16.8206L7.80713 17.3597L6.8689 17.8974L5.93137 18.4394L0.0332701 21.8254L0.0332701 12.9018L0.0332701 9.53831C0.0417545 9.43485 0.0467038 9.33984 0.0488249 9.25679C0.0488249 9.19837 0.0488249 9.19133 0.0488249 9.16318C0.0449178 9.0486 0.0691892 8.9348 0.119529 8.83169C0.171326 8.75629 0.244547 8.698 0.32982 8.66427C0.415093 8.63055 0.508538 8.62292 0.598192 8.64237C0.64153 8.65437 0.682776 8.67288 0.720509 8.69726C0.831514 8.7599 0.984941 8.84858 1.1716 8.96119C1.39078 9.10617 1.62127 9.25045 1.86379 9.39192C1.95146 9.444 2.03913 9.49397 2.1261 9.54324L3.73955 10.4687L4.00328 10.6208L6.76708 12.2071L6.86607 12.2642L8.64356 13.284L8.74254 13.341L10.5222 14.3629L11.7743 15.078Z" fill="#3A3A3A"/>
  <path d="M11.8718 17.18V28.6795L11.8442 28.695L9.96915 27.6182L8.74739 26.9144L6.84122 25.8207L1.86652 22.9674L1.83399 22.9484L0.91909 22.4255L1.86369 21.8829L1.89126 21.8667L2.16772 21.7076L2.29286 21.6372L3.73946 20.8074L3.76774 20.7906L6.86597 19.0113L6.89637 18.9937L8.74244 17.9345L8.77426 17.9155L11.869 16.1398L11.8718 17.18Z" fill="#3A3A3A"/>
  <path d="M26.019 12.793V20.7819C26.0298 20.9467 26.0089 21.112 25.9575 21.269C25.7743 21.82 25.2616 22.0491 25.15 22.1135L24.2386 22.6365L19.2314 25.5059L19.1155 25.572L14.6131 28.1522L14.5155 28.2085L14.5063 28.2127L14.2341 28.3697L13.6444 28.6941C13.6134 28.7065 13.5808 28.7148 13.5475 28.7188C13.5096 28.728 13.4703 28.7297 13.4317 28.7238C13.3931 28.7179 13.3561 28.7044 13.3227 28.6843C13.2955 28.6608 13.2735 28.6319 13.2584 28.5994C13.2433 28.5668 13.2353 28.5315 13.235 28.4956L13.235 14.297L12.3555 13.7945L4.22598 9.12829L3.65328 8.7975L2.35021 8.05147L1.94296 7.84032C1.1935 7.4469 1.00331 7.3371 0.973614 7.14637C0.957576 7.03172 0.982608 6.9151 1.04432 6.81699C1.08418 6.75435 1.13613 6.69379 1.19513 6.65973L3.6763 5.23501L7.56508 2.97852L11.4491 0.736099L12.3555 0.211059C12.527 0.115504 12.7142 0.0509308 12.9084 0.0203272C13.5666 -0.0852438 14.0856 0.249768 14.2313 0.35182L18.1786 2.61456L22.3579 5.01243L22.8189 5.27847L24.2365 6.08785C24.4698 6.22861 24.6742 6.34896 24.8432 6.45312C25.4894 6.85077 25.7743 7.05347 25.8875 7.32584C25.9288 7.43077 25.9598 7.53943 25.9801 7.6503C25.9991 7.73684 25.9994 7.88182 26.0006 7.99657C26.0058 8.51692 26.0112 9.03727 26.0168 9.55761L26.019 12.793Z" fill="#3A3A3A"/>
</svg>